Monda-Medium2.ufo
<glyph name="exclam" format="1">
  <advance width="468"/>
  <unicode hex="0021"/>
  <outline>
    <contour>
      <point x="145" y="206" type="line"/>
      <point x="350" y="206" type="line"/>
      <point x="350" y="0" type="line"/>
      <point x="145" y="0" type="line"/>
    </contour>
    <contour>
      <point x="147" y="1446" type="line"/>
      <point x="349" y="1446" type="line"/>
      <point x="280" y="371" type="line"/>
      <point x="204" y="371" type="line"/>
    </contour>
  </outline>
</glyph>
<glyph name="quotedbl" format="1">
  <advance width="752"/>
  <unicode hex="0022"/>
  <outline>
    <contour>
      <point x="630" y="1446" type="line"/>
      <point x="561" y="870" type="line"/>
      <point x="489" y="870" type="line"/>
      <point x="425" y="1446" type="line"/>
    </contour>
    <contour>
      <point x="327" y="1446" type="line"/>
      <point x="258" y="870" type="line"/>
      <point x="186" y="870" type="line"/>
      <point x="122" y="1446" type="line"/>
    </contour>
  </outline>
</glyph>
<glyph name="numbersign" format="1">
  <advance width="1504"/>
  <unicode hex="0023"/>
  <outline>
    <contour>
      <point x="111" y="475" type="line"/>
      <point x="111" y="594" type="line"/>
      <point x="1379" y="594" type="line"/>
      <point x="1379" y="475" type="line"/>
    </contour>
    <contour>
      <point x="135" y="910" type="line"/>
      <point x="135" y="1029" type="line"/>
      <point x="1403" y="1029" type="line"/>
      <point x="1403" y="910" type="line"/>
    </contour>
    <contour>
      <point x="976" y="-1" type="line"/>
      <point x="798" y="-1" type="line"/>
      <point x="1062" y="1446" type="line"/>
      <point x="1232" y="1446" type="line"/>
    </contour>
    <contour>
      <point x="438" y="-1" type="line"/>
      <point x="260" y="-1" type="line"/>
      <point x="524" y="1446" type="line"/>
      <point x="694" y="1446" type="line"/>
    </contour>
  </outline>
</glyph>
<glyph name="dollar" format="1">
  <advance width="1303"/>
  <unicode hex="0024"/>
  <outline>
    <contour>
      <point x="730" y="1638" type="line"/>
      <point x="620" y="1638" type="line"/>
      <point x="620" y="-242" type="line"/>
      <point x="730" y="-242" type="line"/>
    </contour>
    <contour>
      <point x="152" y="209" type="line"/>
      <point x="257" y="72"/>
      <point x="456" y="-18"/>
      <point x="665" y="-23" type="curve" smooth="yes"/>
      <point x="969" y="-27"/>
      <point x="1169" y="124"/>
      <point x="1175" y="380" type="curve" smooth="yes"/>
      <point x="1181" y="618"/>
      <point x="1022" y="706"/>
      <point x="850" y="780" type="curve" smooth="yes"/>
      <point x="549" y="911" type="line" smooth="yes"/>
      <point x="393" y="978"/>
      <point x="364" y="1040"/>
      <point x="372" y="1137" type="curve" smooth="yes"/>
      <point x="381" y="1246"/>
      <point x="476" y="1328"/>
      <point x="675" y="1326" type="curve" smooth="yes"/>
      <point x="862" y="1322"/>
      <point x="986" y="1250"/>
      <point x="1061" y="1159" type="curve"/>
      <point x="1151" y="1284" type="line"/>
      <point x="1086" y="1371"/>
      <point x="927" y="1481"/>
      <point x="660" y="1481" type="curve" smooth="yes"/>
      <point x="410" y="1481"/>
      <point x="185" y="1374"/>
      <point x="176" y="1118" type="curve" smooth="yes"/>
      <point x="168" y="900"/>
      <point x="314" y="815"/>
      <point x="487" y="740" type="curve" smooth="yes"/>
      <point x="773" y="616" type="line" smooth="yes"/>
      <point x="939" y="544"/>
      <point x="994" y="483"/>
      <point x="983" y="352" type="curve" smooth="yes"/>
      <point x="970" y="196"/>
      <point x="855" y="138"/>
      <point x="671" y="138" type="curve" smooth="yes"/>
      <point x="471" y="138"/>
      <point x="321" y="252"/>
      <point x="239" y="338" type="curve"/>
    </contour>
  </outline>
</glyph>
<glyph name="quotesingle" format="1">
  <advance width="583"/>
  <unicode hex="0027"/>
  <outline>
    <contour>
      <point x="414" y="1446" type="line"/>
      <point x="345" y="870" type="line"/>
      <point x="273" y="870" type="line"/>
      <point x="209" y="1446" type="line"/>
    </contour>
  </outline>
</glyph>
<glyph name="parenright" format="1">
  <advance width="893"/>
  <unicode hex="0029"/>
  <outline>
    <contour>
      <point x="152" y="1417" type="line"/>
      <point x="448" y="1417"/>
      <point x="470" y="1264"/>
      <point x="470" y="1008" type="curve" smooth="yes"/>
      <point x="470" y="420" type="line" smooth="yes"/>
      <point x="470" y="163"/>
      <point x="446" y="-5"/>
      <point x="152" y="0" type="curve"/>
      <point x="152" y="-151" type="line"/>
      <point x="637" y="-151"/>
      <point x="662" y="151"/>
      <point x="662" y="457" type="curve" smooth="yes"/>
      <point x="662" y="977" type="line" smooth="yes"/>
      <point x="662" y="1278"/>
      <point x="635" y="1567"/>
      <point x="152" y="1567" type="curve"/>
    </contour>
  </outline>
</glyph>
<glyph name="asterisk" format="1">
  <advance width="1132"/>
  <unicode hex="002A"/>
  <outline>
    <contour>
      <point x="477" y="1446" type="line"/>
      <point x="505" y="1133" type="line"/>
      <point x="258" y="1323" type="line"/>
      <point x="163" y="1170" type="line"/>
      <point x="443" y="1028" type="line"/>
      <point x="153" y="911" type="line"/>
      <point x="233" y="750" type="line"/>
      <point x="506" y="924" type="line"/>
      <point x="477" y="599" type="line"/>
      <point x="655" y="599" type="line"/>
      <point x="626" y="912" type="line"/>
      <point x="873" y="722" type="line"/>
      <point x="968" y="875" type="line"/>
      <point x="688" y="1017" type="line"/>
      <point x="979" y="1134" type="line"/>
      <point x="898" y="1295" type="line"/>
      <point x="625" y="1121" type="line"/>
      <point x="655" y="1446" type="line"/>
    </contour>
  </outline>
</glyph>
<glyph name="comma" format="1">
  <advance width="495"/>
  <unicode hex="002C"/>
  <outline>
    <contour>
      <point x="135" y="211" type="line"/>
      <point x="135" y="0" type="line"/>
      <point x="253" y="0" type="line"/>
      <point x="253" y="-132"/>
      <point x="186" y="-239"/>
      <point x="139" y="-294" type="curve"/>
      <point x="220" y="-338" type="line"/>
      <point x="278" y="-284"/>
      <point x="369" y="-141"/>
      <point x="369" y="50" type="curve" smooth="yes"/>
      <point x="369" y="211" type="line"/>
    </contour>
  </outline>
</glyph>
<glyph name="period" format="1">
  <advance width="412"/>
  <unicode hex="002E"/>
  <outline>
    <contour>
      <point x="108" y="206" type="line"/>
      <point x="313" y="206" type="line"/>
      <point x="313" y="0" type="line"/>
      <point x="108" y="0" type="line"/>
    </contour>
  </outline>
</glyph>
<glyph name="slash" format="1">
  <advance width="979"/>
  <unicode hex="002F"/>
  <outline>
    <contour>
      <point x="665" y="1446" type="line"/>
      <point x="125" y="0" type="line"/>
      <point x="320" y="0" type="line"/>
      <point x="858" y="1446" type="line"/>
    </contour>
  </outline>
</glyph>
<glyph name="zero" format="1">
  <advance width="1336"/>
  <unicode hex="0030"/>
  <outline>
    <contour>
      <point x="677" y="-24" type="curve" smooth="yes"/>
      <point x="1142" y="-24"/>
      <point x="1191" y="233"/>
      <point x="1191" y="530" type="curve" smooth="yes"/>
      <point x="1191" y="912" type="line" smooth="yes"/>
      <point x="1191" y="1218"/>
      <point x="1144" y="1483"/>
      <point x="677" y="1483" type="curve" smooth="yes"/>
      <point x="192" y="1483"/>
      <point x="145" y="1231"/>
      <point x="145" y="925" type="curve" smooth="yes"/>
      <point x="145" y="516" type="line" smooth="yes"/>
      <point x="145" y="215"/>
      <point x="194" y="-24"/>
    </contour>
    <contour>
      <point x="677" y="126" type="curve" smooth="yes"/>
      <point x="421" y="126"/>
      <point x="347" y="229"/>
      <point x="347" y="485" type="curve" smooth="yes"/>
      <point x="347" y="962" type="line" smooth="yes"/>
      <point x="347" y="1219"/>
      <point x="423" y="1332"/>
      <point x="677" y="1332" type="curve" smooth="yes"/>
      <point x="933" y="1332"/>
      <point x="990" y="1219"/>
      <point x="990" y="962" type="curve" smooth="yes"/>
      <point x="990" y="485" type="line" smooth="yes"/>
      <point x="990" y="229"/>
      <point x="935" y="126"/>
    </contour>
  </outline>
</glyph>
<glyph name="one" format="1">
  <advance width="1098"/>
  <unicode hex="0031"/>
  <outline>
    <contour>
      <point x="1075" y="0" type="line"/>
      <point x="133" y="0" type="line"/>
      <point x="133" y="155" type="line"/>
      <point x="1075" y="155" type="line"/>
    </contour>
    <contour>
      <point x="716" y="0" type="line"/>
      <point x="515" y="0" type="line"/>
      <point x="515" y="1277" type="line"/>
      <point x="160" y="1237" type="line"/>
      <point x="142" y="1396" type="line"/>
      <point x="552" y="1446" type="line"/>
      <point x="716" y="1446" type="line"/>
    </contour>
  </outline>
</glyph>
<glyph name="three" format="1">
  <advance width="1394"/>
  <unicode hex="0033"/>
  <outline>
    <contour>
      <point x="1041" y="391" type="curve" smooth="yes"/>
      <point x="1041" y="212"/>
      <point x="909" y="127"/>
      <point x="736" y="127" type="curve" smooth="yes"/>
      <point x="537" y="127"/>
      <point x="377" y="158"/>
      <point x="369" y="461" type="curve"/>
      <point x="173" y="461" type="line"/>
      <point x="188" y="73"/>
      <point x="397" y="-24"/>
      <point x="725" y="-24" type="curve" smooth="yes"/>
      <point x="1009" y="-24"/>
      <point x="1232" y="106"/>
      <point x="1232" y="402" type="curve" smooth="yes"/>
      <point x="1232" y="646"/>
      <point x="1115" y="726"/>
      <point x="931" y="760" type="curve"/>
      <point x="1119" y="795"/>
      <point x="1203" y="901"/>
      <point x="1203" y="1091" type="curve" smooth="yes"/>
      <point x="1203" y="1357"/>
      <point x="976" y="1483"/>
      <point x="727" y="1483" type="curve" smooth="yes"/>
      <point x="440" y="1483"/>
      <point x="199" y="1404"/>
      <point x="192" y="1016" type="curve"/>
      <point x="384" y="1016" type="line"/>
      <point x="382" y="1284"/>
      <point x="517" y="1334"/>
      <point x="725" y="1334" type="curve" smooth="yes"/>
      <point x="937" y="1334"/>
      <point x="1015" y="1224"/>
      <point x="1015" y="1088" type="curve" smooth="yes"/>
      <point x="1015" y="944"/>
      <point x="1006" y="828"/>
      <point x="597" y="828" type="curve"/>
      <point x="597" y="687" type="line"/>
      <point x="957" y="687"/>
      <point x="1041" y="604"/>
    </contour>
  </outline>
</glyph>
<glyph name="seven" format="1">
  <advance width="1130"/>
  <unicode hex="0037"/>
  <outline>
    <contour>
      <point x="505" y="0" type="line"/>
      <point x="294" y="0" type="line"/>
      <point x="794" y="1291" type="line"/>
      <point x="114" y="1291" type="line"/>
      <point x="114" y="1446" type="line"/>
      <point x="995" y="1446" type="line"/>
      <point x="995" y="1289" type="line"/>
    </contour>
  </outline>
</glyph>
<glyph name="eight" format="1">
  <advance width="1303.16456164"/>
  <unicode hex="0038"/>
  <outline>
    <contour>
      <point x="152.0" y="209.0" type="curve"/>
      <point x="239.0" y="338.0" type="line"/>
      <point x="321.0" y="252.0"/>
      <point x="471.0" y="138.0"/>
      <point x="671.0" y="138.0" type="curve" smooth="yes"/>
      <point x="855.0" y="138.0"/>
      <point x="970.0" y="196.0"/>
      <point x="983.0" y="352.0" type="curve" smooth="yes"/>
      <point x="994.0" y="483.0"/>
      <point x="939.0" y="544.0"/>
      <point x="773.0" y="616.0" type="curve" smooth="yes"/>
      <point x="487.0" y="740.0" type="line" smooth="yes"/>
      <point x="314.0" y="815.0"/>
      <point x="168.0" y="900.0"/>
      <point x="176.0" y="1118.0" type="curve" smooth="yes"/>
      <point x="185.0" y="1374.0"/>
      <point x="410.0" y="1481.0"/>
      <point x="660.0" y="1481.0" type="curve" smooth="yes"/>
      <point x="927.0" y="1481.0"/>
      <point x="1086.0" y="1371.0"/>
      <point x="1151.0" y="1284.0" type="curve"/>
      <point x="1061.0" y="1159.0" type="line"/>
      <point x="986.0" y="1250.0"/>
      <point x="862.0" y="1322.0"/>
      <point x="675.0" y="1326.0" type="curve" smooth="yes"/>
      <point x="476.0" y="1328.0"/>
      <point x="381.0" y="1246.0"/>
      <point x="372.0" y="1137.0" type="curve" smooth="yes"/>
      <point x="364.0" y="1040.0"/>
      <point x="393.0" y="978.0"/>
      <point x="549.0" y="911.0" type="curve" smooth="yes"/>
      <point x="850.0" y="780.0" type="line" smooth="yes"/>
      <point x="1022.0" y="706.0"/>
      <point x="1181.0" y="618.0"/>
      <point x="1175.0" y="380.0" type="curve" smooth="yes"/>
      <point x="1169.0" y="124.0"/>
      <point x="969.0" y="-27.0"/>
      <point x="665.0" y="-23.0" type="curve" smooth="yes"/>
      <point x="456.0" y="-18.0"/>
      <point x="257.0" y="72.0"/>
    </contour>
  </outline>
</glyph>
<glyph name="semicolon" format="1">
  <advance width="684"/>
  <unicode hex="003B"/>
  <outline>
    <contour>
      <point x="257" y="421" type="line"/>
      <point x="257" y="210" type="line"/>
      <point x="375" y="210" type="line"/>
      <point x="375" y="78"/>
      <point x="308" y="-29"/>
      <point x="261" y="-84" type="curve"/>
      <point x="342" y="-128" type="line"/>
      <point x="400" y="-74"/>
      <point x="491" y="69"/>
      <point x="491" y="260" type="curve" smooth="yes"/>
      <point x="491" y="421" type="line"/>
    </contour>
    <contour>
      <point x="263" y="1084" type="line"/>
      <point x="468" y="1084" type="line"/>
      <point x="468" y="878" type="line"/>
      <point x="263" y="878" type="line"/>
    </contour>
  </outline>
</glyph>
<glyph name="less" format="1">
  <advance width="1230"/>
  <unicode hex="003C"/>
  <outline>
    <contour>
      <point x="1058" y="925" type="line"/>
      <point x="337" y="573" type="line"/>
      <point x="1058" y="217" type="line"/>
      <point x="1058" y="0" type="line"/>
      <point x="172" y="471" type="line"/>
      <point x="172" y="672" type="line"/>
      <point x="1058" y="1144" type="line"/>
    </contour>
  </outline>
</glyph>
<glyph name="equal" format="1">
  <advance width="1217"/>
  <unicode hex="003D"/>
  <outline>
    <contour>
      <point x="207" y="615" type="line"/>
      <point x="1010" y="615" type="line"/>
      <point x="1010" y="467" type="line"/>
      <point x="207" y="467" type="line"/>
    </contour>
    <contour>
      <point x="207" y="953" type="line"/>
      <point x="1010" y="953" type="line"/>
      <point x="1010" y="805" type="line"/>
      <point x="207" y="805" type="line"/>
    </contour>
  </outline>
</glyph>
<glyph name="greater" format="1">
  <advance width="1455"/>
  <unicode hex="003E"/>
  <outline>
    <contour>
      <point x="318" y="219" type="line"/>
      <point x="1039" y="571" type="line"/>
      <point x="318" y="927" type="line"/>
      <point x="318" y="1144" type="line"/>
      <point x="1204" y="673" type="line"/>
      <point x="1204" y="472" type="line"/>
      <point x="318" y="0" type="line"/>
    </contour>
  </outline>
</glyph>
<glyph name="A" format="1">
  <advance width="1376"/>
  <unicode hex="0041"/>
  <outline>
    <contour>
      <point x="302" y="417" type="line"/>
      <point x="1060" y="417" type="line"/>
      <point x="1060" y="282" type="line"/>
      <point x="302" y="282" type="line"/>
    </contour>
    <contour>
      <point x="1308" y="0" type="line"/>
      <point x="1103" y="0" type="line"/>
      <point x="693" y="1184" type="line"/>
      <point x="277" y="0" type="line"/>
      <point x="68" y="0" type="line"/>
      <point x="599" y="1446" type="line"/>
      <point x="776" y="1446" type="line"/>
    </contour>
  </outline>
</glyph>
<glyph name="B" format="1">
  <advance width="1446"/>
  <unicode hex="0042"/>
  <outline>
    <contour>
      <point x="783" y="-1" type="line" smooth="yes"/>
      <point x="1150" y="-1"/>
      <point x="1317" y="135"/>
      <point x="1317" y="448" type="curve" smooth="yes"/>
      <point x="1317" y="572"/>
      <point x="1251" y="731"/>
      <point x="1100" y="769" type="curve"/>
      <point x="1214" y="809"/>
      <point x="1242" y="922"/>
      <point x="1242" y="1049" type="curve" smooth="yes"/>
      <point x="1242" y="1320"/>
      <point x="1147" y="1446"/>
      <point x="746" y="1446" type="curve" smooth="yes"/>
      <point x="208" y="1446" type="line"/>
      <point x="208" y="-1" type="line"/>
    </contour>
    <contour>
      <point x="410" y="149" type="line"/>
      <point x="410" y="1295" type="line"/>
      <point x="726" y="1295" type="line" smooth="yes"/>
      <point x="970" y="1295"/>
      <point x="1041" y="1256"/>
      <point x="1041" y="1047" type="curve" smooth="yes"/>
      <point x="1041" y="917"/>
      <point x="993" y="833"/>
      <point x="811" y="833" type="curve" smooth="yes"/>
      <point x="382" y="833" type="line"/>
      <point x="382" y="696" type="line"/>
      <point x="840" y="696" type="line" smooth="yes"/>
      <point x="1061" y="696"/>
      <point x="1116" y="578"/>
      <point x="1116" y="446" type="curve" smooth="yes"/>
      <point x="1116" y="180"/>
      <point x="987" y="149"/>
      <point x="763" y="149" type="curve" smooth="yes"/>
    </contour>
  </outline>
</glyph>
<glyph name="C" format="1">
  <advance width="1448"/>
  <unicode hex="0043"/>
  <outline>
    <contour>
      <point x="1094" y="900" type="line"/>
      <point x="1289" y="900" type="line"/>
      <point x="1289" y="942" type="line" smooth="yes"/>
      <point x="1289" y="1248"/>
      <point x="1214" y="1483"/>
      <point x="747" y="1483" type="curve" smooth="yes"/>
      <point x="262" y="1483"/>
      <point x="170" y="1261"/>
      <point x="170" y="955" type="curve" smooth="yes"/>
      <point x="170" y="486" type="line" smooth="yes"/>
      <point x="170" y="185"/>
      <point x="266" y="-24"/>
      <point x="749" y="-24" type="curve" smooth="yes"/>
      <point x="1214" y="-24"/>
      <point x="1289" y="203"/>
      <point x="1289" y="500" type="curve" smooth="yes"/>
      <point x="1289" y="558" type="line"/>
      <point x="1094" y="558" type="line"/>
      <point x="1094" y="455" type="line" smooth="yes"/>
      <point x="1094" y="199"/>
      <point x="1007" y="126"/>
      <point x="749" y="126" type="curve" smooth="yes"/>
      <point x="493" y="126"/>
      <point x="372" y="199"/>
      <point x="372" y="455" type="curve" smooth="yes"/>
      <point x="372" y="992" type="line" smooth="yes"/>
      <point x="372" y="1249"/>
      <point x="493" y="1332"/>
      <point x="747" y="1332" type="curve" smooth="yes"/>
      <point x="1003" y="1332"/>
      <point x="1094" y="1249"/>
      <point x="1094" y="992" type="curve" smooth="yes"/>
    </contour>
  </outline>
</glyph>
<glyph name="D" format="1">
  <advance width="1493"/>
  <unicode hex="0044"/>
  <outline>
    <contour>
      <point x="206" y="0" type="line"/>
      <point x="776" y="0" type="line" smooth="yes"/>
      <point x="1143" y="0"/>
      <point x="1322" y="169"/>
      <point x="1322" y="482" type="curve" smooth="yes"/>
      <point x="1322" y="959" type="line" smooth="yes"/>
      <point x="1322" y="1235"/>
      <point x="1175" y="1446"/>
      <point x="774" y="1446" type="curve" smooth="yes"/>
      <point x="206" y="1446" type="line"/>
    </contour>
    <contour>
      <point x="756" y="150" type="curve" smooth="yes"/>
      <point x="408" y="150" type="line"/>
      <point x="408" y="1295" type="line"/>
      <point x="756" y="1295" type="line" smooth="yes"/>
      <point x="962" y="1295"/>
      <point x="1121" y="1238"/>
      <point x="1121" y="971" type="curve" smooth="yes"/>
      <point x="1121" y="462" type="line" smooth="yes"/>
      <point x="1121" y="196"/>
      <point x="964" y="150"/>
    </contour>
  </outline>
</glyph>
<glyph name="E" format="1">
  <advance width="1241"/>
  <unicode hex="0045"/>
  <outline>
    <contour>
      <point x="224" y="1446" type="line"/>
      <point x="1067" y="1446" type="line"/>
      <point x="1067" y="1296" type="line"/>
      <point x="425" y="1296" type="line"/>
      <point x="425" y="814" type="line"/>
      <point x="1006" y="814" type="line"/>
      <point x="1006" y="664" type="line"/>
      <point x="425" y="664" type="line"/>
      <point x="425" y="150" type="line"/>
      <point x="1076" y="150" type="line"/>
      <point x="1076" y="0" type="line"/>
      <point x="224" y="0" type="line"/>
    </contour>
  </outline>
</glyph>
<glyph name="F" format="1">
  <advance width="1185"/>
  <unicode hex="0046"/>
  <outline>
    <contour>
      <point x="224" y="0" type="line"/>
      <point x="425" y="0" type="line"/>
      <point x="425" y="664" type="line"/>
      <point x="1009" y="664" type="line"/>
      <point x="1009" y="814" type="line"/>
      <point x="425" y="814" type="line"/>
      <point x="425" y="1296" type="line"/>
      <point x="1054" y="1296" type="line"/>
      <point x="1054" y="1446" type="line"/>
      <point x="224" y="1446" type="line"/>
    </contour>
  </outline>
</glyph>
<glyph name="G" format="1">
  <advance width="1491"/>
  <unicode hex="0047"/>
  <outline>
    <contour>
      <point x="1220" y="0" type="line"/>
      <point x="1311" y="0" type="line"/>
      <point x="1311" y="735" type="line"/>
      <point x="871" y="735" type="line"/>
      <point x="871" y="588" type="line"/>
      <point x="1095" y="588" type="line"/>
      <point x="1095" y="455" type="line" smooth="yes"/>
      <point x="1095" y="199"/>
      <point x="1008" y="126"/>
      <point x="750" y="126" type="curve" smooth="yes"/>
      <point x="494" y="126"/>
      <point x="373" y="199"/>
      <point x="373" y="455" type="curve" smooth="yes"/>
      <point x="373" y="992" type="line" smooth="yes"/>
      <point x="373" y="1249"/>
      <point x="500" y="1332"/>
      <point x="754" y="1332" type="curve" smooth="yes"/>
      <point x="1010" y="1332"/>
      <point x="1095" y="1249"/>
      <point x="1095" y="992" type="curve" smooth="yes"/>
      <point x="1095" y="900" type="line"/>
      <point x="1290" y="900" type="line"/>
      <point x="1290" y="942" type="line" smooth="yes"/>
      <point x="1290" y="1248"/>
      <point x="1221" y="1483"/>
      <point x="754" y="1483" type="curve" smooth="yes"/>
      <point x="269" y="1483"/>
      <point x="171" y="1261"/>
      <point x="171" y="955" type="curve" smooth="yes"/>
      <point x="171" y="486" type="line" smooth="yes"/>
      <point x="171" y="185"/>
      <point x="267" y="-24"/>
      <point x="750" y="-24" type="curve" smooth="yes"/>
      <point x="1036" y="-24"/>
      <point x="1142" y="96"/>
      <point x="1176" y="216" type="curve"/>
    </contour>
  </outline>
</glyph>
<glyph name="H" format="1">
  <advance width="1493"/>
  <unicode hex="0048"/>
  <outline>
    <contour>
      <point x="206" y="1446" type="line"/>
      <point x="407" y="1446" type="line"/>
      <point x="407" y="807" type="line"/>
      <point x="1086" y="807" type="line"/>
      <point x="1086" y="1446" type="line"/>
      <point x="1287" y="1446" type="line"/>
      <point x="1287" y="0" type="line"/>
      <point x="1086" y="0" type="line"/>
      <point x="1086" y="659" type="line"/>
      <point x="407" y="659" type="line"/>
      <point x="407" y="0" type="line"/>
      <point x="206" y="0" type="line"/>
    </contour>
  </outline>
</glyph>
<glyph name="I" format="1">
  <advance width="1075"/>
  <unicode hex="0049"/>
  <outline>
    <contour>
      <point x="913" y="0" type="line"/>
      <point x="913" y="150" type="line"/>
      <point x="638" y="150" type="line"/>
      <point x="638" y="1297" type="line"/>
      <point x="913" y="1297" type="line"/>
      <point x="913" y="1446" type="line"/>
      <point x="162" y="1446" type="line"/>
      <point x="162" y="1297" type="line"/>
      <point x="437" y="1297" type="line"/>
      <point x="437" y="150" type="line"/>
      <point x="162" y="150" type="line"/>
      <point x="162" y="0" type="line"/>
    </contour>
  </outline>
</glyph>
<glyph name="J" format="1">
  <advance width="1169"/>
  <unicode hex="004A"/>
  <outline>
    <contour>
      <point x="153" y="225" type="curve"/>
      <point x="98" y="70" type="line"/>
      <point x="163" y="36"/>
      <point x="318" y="-17"/>
      <point x="486" y="-17" type="curve" smooth="yes"/>
      <point x="811" y="-17"/>
      <point x="945" y="157"/>
      <point x="945" y="431" type="curve" smooth="yes"/>
      <point x="945" y="1446" type="line"/>
      <point x="380" y="1446" type="line"/>
      <point x="380" y="1281" type="line"/>
      <point x="744" y="1281" type="line"/>
      <point x="744" y="435" type="line" smooth="yes"/>
      <point x="744" y="248"/>
      <point x="671" y="148"/>
      <point x="480" y="148" type="curve" smooth="yes"/>
      <point x="334" y="148"/>
      <point x="200" y="203"/>
    </contour>
  </outline>
</glyph>
<glyph name="K" format="1">
  <advance width="1359"/>
  <unicode hex="004B"/>
  <outline>
    <contour>
      <point x="206" y="1446" type="line"/>
      <point x="407" y="1446" type="line"/>
      <point x="407" y="657" type="line"/>
      <point x="563" y="844" type="line"/>
      <point x="1092" y="1446" type="line"/>
      <point x="1310" y="1446" type="line"/>
      <point x="766" y="798" type="line"/>
      <point x="1339" y="0" type="line"/>
      <point x="1116" y="0" type="line"/>
      <point x="625" y="690" type="line"/>
      <point x="407" y="468" type="line"/>
      <point x="407" y="0" type="line"/>
      <point x="206" y="0" type="line"/>
    </contour>
  </outline>
</glyph>
<glyph name="L" format="1">
  <advance width="1083"/>
  <unicode hex="004C"/>
  <outline>
    <contour>
      <point x="206" y="1446" type="line"/>
      <point x="407" y="1446" type="line"/>
      <point x="407" y="155" type="line"/>
      <point x="1034" y="155" type="line"/>
      <point x="1034" y="0" type="line"/>
      <point x="206" y="0" type="line"/>
    </contour>
  </outline>
</glyph>
<glyph name="M" format="1">
  <advance width="1740"/>
  <unicode hex="004D"/>
  <outline>
    <contour>
      <point x="208" y="0" type="line"/>
      <point x="208" y="1446" type="line"/>
      <point x="393" y="1446" type="line"/>
      <point x="871" y="638" type="line"/>
      <point x="1354" y="1446" type="line"/>
      <point x="1532" y="1446" type="line"/>
      <point x="1532" y="0" type="line"/>
      <point x="1342" y="0" type="line"/>
      <point x="1342" y="1121" type="line"/>
      <point x="946" y="458" type="line"/>
      <point x="797" y="458" type="line"/>
      <point x="400" y="1117" type="line"/>
      <point x="400" y="0" type="line"/>
    </contour>
  </outline>
</glyph>
<glyph name="N" format="1">
  <advance width="1502"/>
  <unicode hex="004E"/>
  <outline>
    <contour>
      <point x="174" y="0" type="line"/>
      <point x="174" y="1446" type="line"/>
      <point x="327" y="1446" type="line"/>
      <point x="1153" y="281" type="line"/>
      <point x="1153" y="1446" type="line"/>
      <point x="1328" y="1446" type="line"/>
      <point x="1328" y="0" type="line"/>
      <point x="1149" y="0" type="line"/>
      <point x="349" y="1115" type="line"/>
      <point x="349" y="0" type="line"/>
    </contour>
  </outline>
</glyph>
<glyph name="O" format="1">
  <advance width="1508"/>
  <unicode hex="004F"/>
  <outline>
    <contour>
      <point x="763" y="-24" type="curve" smooth="yes"/>
      <point x="1228" y="-24"/>
      <point x="1337" y="203"/>
      <point x="1337" y="500" type="curve" smooth="yes"/>
      <point x="1337" y="942" type="line" smooth="yes"/>
      <point x="1337" y="1248"/>
      <point x="1230" y="1483"/>
      <point x="763" y="1483" type="curve" smooth="yes"/>
      <point x="278" y="1483"/>
      <point x="171" y="1261"/>
      <point x="171" y="955" type="curve" smooth="yes"/>
      <point x="171" y="486" type="line" smooth="yes"/>
      <point x="171" y="185"/>
      <point x="280" y="-24"/>
    </contour>
    <contour>
      <point x="763" y="126" type="curve" smooth="yes"/>
      <point x="507" y="126"/>
      <point x="373" y="199"/>
      <point x="373" y="455" type="curve" smooth="yes"/>
      <point x="373" y="992" type="line" smooth="yes"/>
      <point x="373" y="1249"/>
      <point x="509" y="1332"/>
      <point x="763" y="1332" type="curve" smooth="yes"/>
      <point x="1019" y="1332"/>
      <point x="1136" y="1249"/>
      <point x="1136" y="992" type="curve" smooth="yes"/>
      <point x="1136" y="455" type="line" smooth="yes"/>
      <point x="1136" y="199"/>
      <point x="1021" y="126"/>
    </contour>
  </outline>
</glyph>
<glyph name="P" format="1">
  <advance width="1348"/>
  <unicode hex="0050"/>
  <outline>
    <contour>
      <point x="224" y="0" type="line"/>
      <point x="426" y="0" type="line"/>
      <point x="426" y="529" type="line"/>
      <point x="800" y="529" type="line" smooth="yes"/>
      <point x="1046" y="529"/>
      <point x="1205" y="645"/>
      <point x="1205" y="957" type="curve" smooth="yes"/>
      <point x="1205" y="1024" type="line" smooth="yes"/>
      <point x="1199" y="1320"/>
      <point x="1044" y="1446"/>
      <point x="801" y="1446" type="curve" smooth="yes"/>
      <point x="224" y="1446" type="line"/>
    </contour>
    <contour>
      <point x="426" y="682" type="line"/>
      <point x="426" y="1293" type="line"/>
      <point x="807" y="1293" type="line" smooth="yes"/>
      <point x="988" y="1293"/>
      <point x="1003" y="1118"/>
      <point x="1003" y="1018" type="curve" smooth="yes"/>
      <point x="1003" y="935" type="line"/>
      <point x="1002" y="828"/>
      <point x="979" y="682"/>
      <point x="804" y="682" type="curve" smooth="yes"/>
    </contour>
  </outline>
</glyph>
<glyph name="R" format="1">
  <advance width="1411"/>
  <unicode hex="0052"/>
  <outline>
    <contour>
      <point x="786" y="636" type="line"/>
      <point x="1058" y="0" type="line"/>
      <point x="1270" y="0" type="line"/>
      <point x="963" y="692" type="line"/>
    </contour>
    <contour>
      <point x="206" y="0" type="line"/>
      <point x="408" y="0" type="line"/>
      <point x="408" y="566" type="line"/>
      <point x="818" y="566" type="line" smooth="yes"/>
      <point x="1064" y="566"/>
      <point x="1234" y="657"/>
      <point x="1234" y="969" type="curve" smooth="yes"/>
      <point x="1234" y="1024" type="line" smooth="yes"/>
      <point x="1228" y="1320"/>
      <point x="1073" y="1446"/>
      <point x="830" y="1446" type="curve" smooth="yes"/>
      <point x="206" y="1446" type="line"/>
    </contour>
    <contour>
      <point x="408" y="719" type="line"/>
      <point x="408" y="1293" type="line"/>
      <point x="836" y="1293" type="line" smooth="yes"/>
      <point x="1017" y="1293"/>
      <point x="1032" y="1118"/>
      <point x="1032" y="1018" type="curve" smooth="yes"/>
      <point x="1032" y="947" type="line"/>
      <point x="1031" y="840"/>
      <point x="997" y="719"/>
      <point x="822" y="719" type="curve" smooth="yes"/>
    </contour>
  </outline>
</glyph>
<glyph name="S" format="1">
  <advance width="1247.11998575"/>
  <unicode hex="0053"/>
  <outline>
    <contour>
      <point x="121" y="209" type="curve"/>
      <point x="213" y="323" type="line"/>
      <point x="295" y="237"/>
      <point x="441" y="130"/>
      <point x="641" y="130" type="curve" smooth="yes"/>
      <point x="825" y="130"/>
      <point x="938" y="196"/>
      <point x="954" y="352" type="curve" smooth="yes"/>
      <point x="963" y="476"/>
      <point x="909" y="550"/>
      <point x="748" y="620" type="curve" smooth="yes"/>
      <point x="461" y="744" type="line" smooth="yes"/>
      <point x="288" y="819"/>
      <point x="140" y="900"/>
      <point x="147" y="1118" type="curve" smooth="yes"/>
      <point x="155" y="1379"/>
      <point x="379" y="1481"/>
      <point x="629" y="1481" type="curve" smooth="yes"/>
      <point x="896" y="1481"/>
      <point x="1052" y="1367"/>
      <point x="1117" y="1280" type="curve"/>
      <point x="1029" y="1164" type="line"/>
      <point x="954" y="1255"/>
      <point x="828" y="1328"/>
      <point x="641" y="1332" type="curve" smooth="yes"/>
      <point x="442" y="1334"/>
      <point x="345" y="1256"/>
      <point x="336" y="1143" type="curve" smooth="yes"/>
      <point x="328" y="1046"/>
      <point x="358" y="975"/>
      <point x="514" y="908" type="curve" smooth="yes"/>
      <point x="818" y="777" type="line" smooth="yes"/>
      <point x="990" y="703"/>
      <point x="1142" y="617"/>
      <point x="1137" y="379" type="curve" smooth="yes"/>
      <point x="1133" y="122"/>
      <point x="938" y="-27"/>
      <point x="634" y="-23" type="curve" smooth="yes"/>
      <point x="425" y="-18"/>
      <point x="226" y="72"/>
    </contour>
  </outline>
</glyph>
<glyph name="T" format="1">
  <advance width="1173"/>
  <unicode hex="0054"/>
  <outline>
    <contour>
      <point x="69" y="1446" type="line"/>
      <point x="1104" y="1446" type="line"/>
      <point x="1104" y="1281" type="line"/>
      <point x="687" y="1281" type="line"/>
      <point x="687" y="0" type="line"/>
      <point x="486" y="0" type="line"/>
      <point x="486" y="1281" type="line"/>
      <point x="69" y="1281" type="line"/>
    </contour>
  </outline>
</glyph>
<glyph name="U" format="1">
  <advance width="1498"/>
  <unicode hex="0055"/>
  <outline>
    <contour>
      <point x="188" y="446" type="curve" smooth="yes"/>
      <point x="188" y="1446" type="line"/>
      <point x="390" y="1446" type="line"/>
      <point x="390" y="440" type="line" smooth="yes"/>
      <point x="390" y="174"/>
      <point x="558" y="126"/>
      <point x="759" y="126" type="curve" smooth="yes"/>
      <point x="962" y="126"/>
      <point x="1108" y="174"/>
      <point x="1108" y="440" type="curve" smooth="yes"/>
      <point x="1108" y="1446" type="line"/>
      <point x="1310" y="1446" type="line"/>
      <point x="1310" y="460" type="line" smooth="yes"/>
      <point x="1310" y="192"/>
      <point x="1212" y="-24"/>
      <point x="759" y="-24" type="curve" smooth="yes"/>
      <point x="286" y="-24"/>
      <point x="188" y="175"/>
    </contour>
  </outline>
</glyph>
<glyph name="V" format="1">
  <advance width="1384"/>
  <unicode hex="0056"/>
  <outline>
    <contour>
      <point x="90" y="1446" type="line"/>
      <point x="297" y="1446" type="line"/>
      <point x="695" y="294" type="line"/>
      <point x="1093" y="1446" type="line"/>
      <point x="1302" y="1446" type="line"/>
      <point x="782" y="0" type="line"/>
      <point x="605" y="0" type="line"/>
    </contour>
  </outline>
</glyph>
<glyph name="W" format="1">
  <advance width="1956"/>
  <unicode hex="0057"/>
  <outline>
    <contour>
      <point x="911" y="1446" type="line"/>
      <point x="1078" y="1446" type="line"/>
      <point x="1384" y="346" type="line"/>
      <point x="1662" y="1446" type="line"/>
      <point x="1845" y="1446" type="line"/>
      <point x="1464" y="0" type="line"/>
      <point x="1312" y="0" type="line"/>
    </contour>
    <contour>
      <point x="112" y="1446" type="line"/>
      <point x="289" y="1446" type="line"/>
      <point x="571" y="346" type="line"/>
      <point x="863" y="1446" type="line"/>
      <point x="1037" y="1446" type="line"/>
      <point x="642" y="0" type="line"/>
      <point x="490" y="0" type="line"/>
    </contour>
  </outline>
</glyph>
<glyph name="X" format="1">
  <advance width="1312"/>
  <unicode hex="0058"/>
  <outline>
    <contour>
      <point x="1010" y="0" type="line"/>
      <point x="102" y="1446" type="line"/>
      <point x="305" y="1446" type="line"/>
      <point x="1228" y="0" type="line"/>
    </contour>
    <contour>
      <point x="1213" y="1446" type="line"/>
      <point x="291" y="0" type="line"/>
      <point x="95" y="0" type="line"/>
      <point x="996" y="1446" type="line"/>
    </contour>
  </outline>
</glyph>
<glyph name="Y" format="1">
  <advance width="1276"/>
  <unicode hex="0059"/>
  <outline>
    <contour>
      <point x="51" y="1446" type="line"/>
      <point x="252" y="1446" type="line"/>
      <point x="657" y="724" type="line"/>
      <point x="1045" y="1446" type="line"/>
      <point x="1240" y="1446" type="line"/>
      <point x="757" y="568" type="line"/>
      <point x="757" y="0" type="line"/>
      <point x="556" y="0" type="line"/>
      <point x="556" y="568" type="line"/>
    </contour>
  </outline>
</glyph>
<glyph name="Z" format="1">
  <advance width="1163"/>
  <unicode hex="005A"/>
  <outline>
    <contour>
      <point x="189" y="1446" type="line"/>
      <point x="1054" y="1446" type="line"/>
      <point x="1054" y="1295" type="line"/>
      <point x="368" y="165" type="line"/>
      <point x="1068" y="165" type="line"/>
      <point x="1068" y="0" type="line"/>
      <point x="146" y="0" type="line"/>
      <point x="146" y="150" type="line"/>
      <point x="833" y="1281" type="line"/>
      <point x="189" y="1281" type="line"/>
    </contour>
  </outline>
</glyph>
<glyph name="bracketleft" format="1">
  <advance width="827"/>
  <unicode hex="005B"/>
  <outline>
    <contour>
      <point x="455" y="58" type="line"/>
      <point x="645" y="58" type="line"/>
      <point x="645" y="-76" type="line"/>
      <point x="224" y="-76" type="line"/>
      <point x="224" y="1529" type="line"/>
      <point x="645" y="1529" type="line"/>
      <point x="645" y="1396" type="line"/>
      <point x="455" y="1396" type="line"/>
    </contour>
  </outline>
</glyph>
<glyph name="backslash" format="1">
  <advance width="502"/>
  <unicode hex="005C"/>
  <outline>
    <contour>
      <point x="44" y="1487" type="line"/>
      <point x="264" y="1487" type="line"/>
      <point x="448" y="-32" type="line"/>
      <point x="228" y="-32" type="line"/>
    </contour>
  </outline>
</glyph>
<glyph name="asciicircum" format="1">
  <advance width="1194"/>
  <unicode hex="005E"/>
  <outline>
    <contour>
      <point x="779" y="1283" type="line"/>
      <point x="1067" y="746" type="line"/>
      <point x="814" y="746" type="line"/>
      <point x="592" y="1091" type="line"/>
      <point x="372" y="746" type="line"/>
      <point x="118" y="746" type="line"/>
      <point x="407" y="1283" type="line"/>
    </contour>
  </outline>
</glyph>
<glyph name="underscore" format="1">
  <advance width="916"/>
  <unicode hex="005F"/>
  <outline>
    <contour>
      <point x="905" y="89" type="line"/>
      <point x="905" y="-82" type="line"/>
      <point x="4" y="-82" type="line"/>
      <point x="4" y="89" type="line"/>
    </contour>
  </outline>
</glyph>
<glyph name="a" format="1">
  <advance width="1143"/>
  <unicode hex="0061"/>
  <outline>
    <contour>
      <point x="1080" y="128" type="line"/>
      <point x="969" y="128"/>
      <point x="949" y="165"/>
      <point x="949" y="268" type="curve" smooth="yes"/>
      <point x="949" y="699" type="line" smooth="yes"/>
      <point x="949" y="917"/>
      <point x="852" y="1080"/>
      <point x="572" y="1080" type="curve" smooth="yes"/>
      <point x="294" y="1080"/>
      <point x="154" y="955"/>
      <point x="154" y="746" type="curve" smooth="yes"/>
      <point x="154" y="695" type="line"/>
      <point x="335" y="695" type="line"/>
      <point x="335" y="745" type="line" smooth="yes"/>
      <point x="335" y="830"/>
      <point x="353" y="940"/>
      <point x="566" y="940" type="curve" smooth="yes"/>
      <point x="758" y="940"/>
      <point x="761" y="830"/>
      <point x="761" y="753" type="curve" smooth="yes"/>
      <point x="761" y="647"/>
      <point x="639" y="626"/>
      <point x="519" y="597" type="curve" smooth="yes"/>
      <point x="173" y="514"/>
      <point x="113" y="423"/>
      <point x="113" y="283" type="curve" smooth="yes"/>
      <point x="113" y="120"/>
      <point x="226" y="-20"/>
      <point x="451" y="-20" type="curve" smooth="yes"/>
      <point x="646" y="-20"/>
      <point x="735" y="70"/>
      <point x="782" y="142" type="curve"/>
      <point x="814" y="42"/>
      <point x="859" y="-12"/>
      <point x="1000" y="-12" type="curve" smooth="yes"/>
      <point x="1017" y="-12"/>
      <point x="1066" y="-10"/>
      <point x="1080" y="-8" type="curve"/>
    </contour>
    <contour>
      <point x="761" y="273" type="line"/>
      <point x="731" y="175"/>
      <point x="593" y="113"/>
      <point x="480" y="113" type="curve" smooth="yes"/>
      <point x="377" y="113"/>
      <point x="301" y="160"/>
      <point x="295" y="266" type="curve" smooth="yes"/>
      <point x="289" y="368"/>
      <point x="318" y="421"/>
      <point x="534" y="477" type="curve" smooth="yes"/>
      <point x="670" y="512"/>
      <point x="732" y="547"/>
      <point x="761" y="576" type="curve"/>
    </contour>
  </outline>
</glyph>
<glyph name="b" format="1">
  <advance width="1139"/>
  <unicode hex="0062"/>
  <outline>
    <contour>
      <point x="264" y="97" type="curve"/>
      <point x="244" y="246" type="line"/>
      <point x="262" y="236"/>
      <point x="387" y="125"/>
      <point x="554" y="125" type="curve" smooth="yes"/>
      <point x="702" y="125"/>
      <point x="823" y="202"/>
      <point x="823" y="332" type="curve" smooth="yes"/>
      <point x="823" y="750" type="line" smooth="yes"/>
      <point x="823" y="877"/>
      <point x="735" y="942"/>
      <point x="597" y="942" type="curve" smooth="yes"/>
      <point x="457" y="942"/>
      <point x="268" y="850"/>
      <point x="258" y="829" type="curve"/>
      <point x="280" y="975" type="line"/>
      <point x="330" y="1030"/>
      <point x="475" y="1084"/>
      <point x="606" y="1084" type="curve" smooth="yes"/>
      <point x="877" y="1084"/>
      <point x="1011" y="940"/>
      <point x="1011" y="736" type="curve" smooth="yes"/>
      <point x="1011" y="352" type="line" smooth="yes"/>
      <point x="1011" y="139"/>
      <point x="858" y="-16"/>
      <point x="582" y="-16" type="curve" smooth="yes"/>
      <point x="414" y="-16"/>
      <point x="304" y="77"/>
    </contour>
    <contour>
      <point x="283" y="4" type="line"/>
      <point x="144" y="4" type="line"/>
      <point x="144" y="1440" type="line"/>
      <point x="332" y="1440" type="line"/>
      <point x="332" y="145" type="line"/>
    </contour>
  </outline>
</glyph>
<glyph name="c" format="1">
  <advance width="1110"/>
  <unicode hex="0063"/>
  <outline>
    <contour>
      <point x="809" y="679" type="line"/>
      <point x="991" y="679" type="line"/>
      <point x="991" y="768" type="line" smooth="yes"/>
      <point x="991" y="981"/>
      <point x="842" y="1080"/>
      <point x="579" y="1080" type="curve" smooth="yes"/>
      <point x="316" y="1080"/>
      <point x="150" y="951"/>
      <point x="150" y="751" type="curve" smooth="yes"/>
      <point x="150" y="314" type="line" smooth="yes"/>
      <point x="150" y="118"/>
      <point x="263" y="-20"/>
      <point x="579" y="-20" type="curve" smooth="yes"/>
      <point x="908" y="-20"/>
      <point x="991" y="94"/>
      <point x="991" y="289" type="curve" smooth="yes"/>
      <point x="991" y="356" type="line"/>
      <point x="809" y="356" type="line"/>
      <point x="809" y="283" type="line" smooth="yes"/>
      <point x="809" y="153"/>
      <point x="718" y="121"/>
      <point x="579" y="121" type="curve" smooth="yes"/>
      <point x="432" y="121"/>
      <point x="337" y="166"/>
      <point x="337" y="308" type="curve" smooth="yes"/>
      <point x="337" y="757" type="line" smooth="yes"/>
      <point x="337" y="888"/>
      <point x="433" y="938"/>
      <point x="579" y="938" type="curve" smooth="yes"/>
      <point x="724" y="938"/>
      <point x="809" y="899"/>
      <point x="809" y="774" type="curve" smooth="yes"/>
    </contour>
  </outline>
</glyph>
<glyph name="d" format="1">
  <advance width="1140"/>
  <unicode hex="0064"/>
  <outline>
    <contour>
      <point x="889" y="992" type="curve"/>
      <point x="883" y="951"/>
      <point x="902" y="811"/>
      <point x="890" y="813" type="curve"/>
      <point x="882" y="872"/>
      <point x="750" y="943"/>
      <point x="583" y="943" type="curve" smooth="yes"/>
      <point x="435" y="943"/>
      <point x="316" y="886"/>
      <point x="316" y="756" type="curve" smooth="yes"/>
      <point x="316" y="314" type="line" smooth="yes"/>
      <point x="316" y="187"/>
      <point x="422" y="126"/>
      <point x="560" y="126" type="curve" smooth="yes"/>
      <point x="700" y="126"/>
      <point x="819" y="188"/>
      <point x="829" y="209" type="curve"/>
      <point x="859" y="83" type="line"/>
      <point x="809" y="28"/>
      <point x="674" y="-16"/>
      <point x="548" y="-16" type="curve" smooth="yes"/>
      <point x="243" y="-16"/>
      <point x="128" y="124"/>
      <point x="128" y="328" type="curve" smooth="yes"/>
      <point x="128" y="735" type="line" smooth="yes"/>
      <point x="128" y="948"/>
      <point x="273" y="1084"/>
      <point x="581" y="1084" type="curve" smooth="yes"/>
      <point x="689" y="1084"/>
      <point x="859" y="1042"/>
    </contour>
    <contour>
      <point x="805" y="1440" type="line"/>
      <point x="993" y="1440" type="line"/>
      <point x="993" y="4" type="line"/>
      <point x="865" y="4" type="line"/>
      <point x="805" y="117" type="line"/>
    </contour>
  </outline>
</glyph>
<glyph name="e" format="1">
  <advance width="1130"/>
  <unicode hex="0065"/>
  <outline>
    <contour>
      <point x="580" y="-20" type="curve" smooth="yes"/>
      <point x="264" y="-20"/>
      <point x="148" y="122"/>
      <point x="148" y="326" type="curve" smooth="yes"/>
      <point x="148" y="743" type="line" smooth="yes"/>
      <point x="148" y="943"/>
      <point x="301" y="1080"/>
      <point x="580" y="1080" type="curve" smooth="yes"/>
      <point x="856" y="1080"/>
      <point x="991" y="959"/>
      <point x="991" y="758" type="curve" smooth="yes"/>
      <point x="991" y="506" type="line"/>
      <point x="336" y="506" type="line"/>
      <point x="336" y="310" type="line" smooth="yes"/>
      <point x="336" y="179"/>
      <point x="416" y="121"/>
      <point x="580" y="121" type="curve" smooth="yes"/>
      <point x="719" y="121"/>
      <point x="809" y="152"/>
      <point x="809" y="282" type="curve" smooth="yes"/>
      <point x="809" y="336" type="line"/>
      <point x="991" y="336" type="line"/>
      <point x="991" y="297" type="line" smooth="yes"/>
      <point x="991" y="102"/>
      <point x="909" y="-20"/>
    </contour>
    <contour>
      <point x="336" y="633" type="line"/>
      <point x="809" y="633" type="line"/>
      <point x="809" y="778" type="line" smooth="yes"/>
      <point x="809" y="906"/>
      <point x="725" y="938"/>
      <point x="580" y="938" type="curve" smooth="yes"/>
      <point x="430" y="938"/>
      <point x="336" y="891"/>
      <point x="336" y="760" type="curve" smooth="yes"/>
    </contour>
  </outline>
</glyph>
<glyph name="f" format="1">
  <advance width="789"/>
  <unicode hex="0066"/>
  <outline>
    <contour>
      <point x="576" y="1446" type="line" smooth="yes"/>
      <point x="358" y="1446"/>
      <point x="282" y="1360"/>
      <point x="282" y="1162" type="curve" smooth="yes"/>
      <point x="282" y="1060" type="line"/>
      <point x="105" y="1060" type="line"/>
      <point x="105" y="943" type="line"/>
      <point x="282" y="943" type="line"/>
      <point x="282" y="0" type="line"/>
      <point x="470" y="0" type="line"/>
      <point x="470" y="943" type="line"/>
      <point x="735" y="943" type="line"/>
      <point x="735" y="1060" type="line"/>
      <point x="470" y="1060" type="line"/>
      <point x="470" y="1180" type="line" smooth="yes"/>
      <point x="470" y="1256"/>
      <point x="476" y="1313"/>
      <point x="591" y="1313" type="curve" smooth="yes"/>
      <point x="747" y="1313" type="line"/>
      <point x="747" y="1446" type="line"/>
    </contour>
  </outline>
</glyph>
<glyph name="g" format="1">
  <advance width="1197"/>
  <unicode hex="0067"/>
  <outline>
    <contour>
      <point x="595" y="935" type="curve" smooth="yes"/>
      <point x="762" y="935"/>
      <point x="839" y="869"/>
      <point x="839" y="810" type="curve" smooth="yes"/>
      <point x="839" y="239" type="line"/>
      <point x="809" y="215"/>
      <point x="732" y="157"/>
      <point x="592" y="157" type="curve" smooth="yes"/>
      <point x="454" y="157"/>
      <point x="348" y="196"/>
      <point x="348" y="323" type="curve" smooth="yes"/>
      <point x="348" y="748" type="line" smooth="yes"/>
      <point x="348" y="878"/>
      <point x="447" y="935"/>
    </contour>
    <contour>
      <point x="1027" y="30" type="curve" smooth="yes"/>
      <point x="1027" y="1060" type="line"/>
      <point x="839" y="1060" type="line"/>
      <point x="839" y="975" type="line"/>
      <point x="809" y="1025"/>
      <point x="675" y="1076"/>
      <point x="567" y="1076" type="curve" smooth="yes"/>
      <point x="291" y="1076"/>
      <point x="160" y="941"/>
      <point x="160" y="728" type="curve" smooth="yes"/>
      <point x="160" y="352" type="line" smooth="yes"/>
      <point x="160" y="132"/>
      <point x="322" y="15"/>
      <point x="593" y="15" type="curve" smooth="yes"/>
      <point x="666" y="15"/>
      <point x="779" y="44"/>
      <point x="839" y="100" type="curve"/>
      <point x="841" y="-23" type="line" smooth="yes"/>
      <point x="842" y="-100"/>
      <point x="806" y="-210"/>
      <point x="614" y="-210" type="curve" smooth="yes"/>
      <point x="481" y="-210"/>
      <point x="353" y="-169"/>
      <point x="314" y="-143" type="curve"/>
      <point x="262" y="-282" type="line"/>
      <point x="360" y="-335"/>
      <point x="477" y="-350"/>
      <point x="620" y="-350" type="curve" smooth="yes"/>
      <point x="900" y="-350"/>
      <point x="1027" y="-188"/>
    </contour>
  </outline>
</glyph>
<glyph name="h" format="1">
  <advance width="1157"/>
  <unicode hex="0068"/>
  <outline>
    <contour>
      <point x="144" y="4" type="line"/>
      <point x="144" y="1440" type="line"/>
      <point x="332" y="1440" type="line"/>
      <point x="332" y="961" type="line"/>
      <point x="394" y="1033"/>
      <point x="495" y="1084"/>
      <point x="649" y="1084" type="curve" smooth="yes"/>
      <point x="910" y="1084"/>
      <point x="1019" y="942"/>
      <point x="1019" y="774" type="curve" smooth="yes"/>
      <point x="1019" y="4" type="line"/>
      <point x="831" y="4" type="line"/>
      <point x="831" y="787" type="line" smooth="yes"/>
      <point x="831" y="892"/>
      <point x="732" y="942"/>
      <point x="601" y="942" type="curve" smooth="yes"/>
      <point x="417" y="942"/>
      <point x="332" y="861"/>
      <point x="332" y="759" type="curve" smooth="yes"/>
      <point x="332" y="4" type="line"/>
    </contour>
  </outline>
</glyph>
<glyph name="i" format="1">
  <advance width="577"/>
  <unicode hex="0069"/>
  <outline>
    <contour>
      <point x="198" y="1434" type="line"/>
      <point x="403" y="1434" type="line"/>
      <point x="403" y="1233" type="line"/>
      <point x="198" y="1233" type="line"/>
    </contour>
    <contour>
      <point x="209" y="1060" type="line"/>
      <point x="396" y="1060" type="line"/>
      <point x="396" y="0" type="line"/>
      <point x="209" y="0" type="line"/>
    </contour>
  </outline>
</glyph>
<glyph name="j" format="1">
  <advance width="596"/>
  <unicode hex="006A"/>
  <outline>
    <contour>
      <point x="234" y="1434" type="line"/>
      <point x="421" y="1434" type="line"/>
      <point x="421" y="1255" type="line"/>
      <point x="234" y="1255" type="line"/>
    </contour>
    <contour>
      <point x="238" y="1061" type="line"/>
      <point x="422" y="1061" type="line"/>
      <point x="422" y="9" type="line" smooth="yes"/>
      <point x="422" y="-153"/>
      <point x="316" y="-251"/>
      <point x="140" y="-251" type="curve" smooth="yes"/>
      <point x="34" y="-251" type="line"/>
      <point x="34" y="-117" type="line"/>
      <point x="104" y="-117" type="line" smooth="yes"/>
      <point x="237" y="-117"/>
      <point x="238" y="-14"/>
      <point x="238" y="26" type="curve" smooth="yes"/>
    </contour>
  </outline>
</glyph>
<glyph name="k" format="1">
  <advance width="1088"/>
  <unicode hex="006B"/>
  <outline>
    <contour>
      <point x="150" y="1440" type="line"/>
      <point x="338" y="1440" type="line"/>
      <point x="338" y="514" type="line"/>
      <point x="452" y="636" type="line"/>
      <point x="844" y="1064" type="line"/>
      <point x="1052" y="1064" type="line"/>
      <point x="630" y="587" type="line"/>
      <point x="1062" y="4" type="line"/>
      <point x="853" y="4" type="line"/>
      <point x="484" y="502" type="line"/>
      <point x="338" y="358" type="line"/>
      <point x="338" y="4" type="line"/>
      <point x="150" y="4" type="line"/>
    </contour>
  </outline>
</glyph>
<glyph name="l" format="1">
  <advance width="703"/>
  <unicode hex="006C"/>
  <outline>
    <contour>
      <point x="194" y="410" type="curve" smooth="yes"/>
      <point x="194" y="1440" type="line"/>
      <point x="382" y="1440" type="line"/>
      <point x="382" y="408" type="line" smooth="yes"/>
      <point x="382" y="265"/>
      <point x="405" y="149"/>
      <point x="592" y="149" type="curve" smooth="yes"/>
      <point x="609" y="149" type="line"/>
      <point x="609" y="4" type="line"/>
      <point x="527" y="4" type="line" smooth="yes"/>
      <point x="295" y="4"/>
      <point x="194" y="131"/>
    </contour>
  </outline>
</glyph>
<glyph name="m" format="1">
  <advance width="1781"/>
  <unicode hex="006D"/>
  <outline>
    <contour>
      <point x="972" y="965" type="line" smooth="yes"/>
      <point x="1039" y="1032"/>
      <point x="1140" y="1080"/>
      <point x="1294" y="1080" type="curve" smooth="yes"/>
      <point x="1555" y="1080"/>
      <point x="1643" y="938"/>
      <point x="1643" y="770" type="curve" smooth="yes"/>
      <point x="1643" y="0" type="line"/>
      <point x="1455" y="0" type="line"/>
      <point x="1455" y="783" type="line" smooth="yes"/>
      <point x="1455" y="888"/>
      <point x="1377" y="938"/>
      <point x="1246" y="938" type="curve" smooth="yes"/>
      <point x="1062" y="938"/>
      <point x="990" y="857"/>
      <point x="990" y="755" type="curve"/>
      <point x="914" y="908" type="line"/>
    </contour>
    <contour>
      <point x="144" y="0" type="line"/>
      <point x="144" y="1060" type="line"/>
      <point x="332" y="1060" type="line"/>
      <point x="332" y="957" type="line"/>
      <point x="394" y="1029"/>
      <point x="482" y="1080"/>
      <point x="636" y="1080" type="curve" smooth="yes"/>
      <point x="897" y="1080"/>
      <point x="990" y="938"/>
      <point x="990" y="770" type="curve" smooth="yes"/>
      <point x="990" y="0" type="line"/>
      <point x="802" y="0" type="line"/>
      <point x="802" y="783" type="line" smooth="yes"/>
      <point x="802" y="888"/>
      <point x="719" y="938"/>
      <point x="588" y="938" type="curve" smooth="yes"/>
      <point x="404" y="938"/>
      <point x="332" y="857"/>
      <point x="332" y="755" type="curve" smooth="yes"/>
      <point x="332" y="0" type="line"/>
    </contour>
  </outline>
</glyph>
<glyph name="n" format="1">
  <advance width="1143"/>
  <unicode hex="006E"/>
  <outline>
    <contour>
      <point x="144" y="0" type="line"/>
      <point x="144" y="1060" type="line"/>
      <point x="332" y="1060" type="line"/>
      <point x="332" y="957" type="line"/>
      <point x="394" y="1029"/>
      <point x="490" y="1080"/>
      <point x="644" y="1080" type="curve" smooth="yes"/>
      <point x="905" y="1080"/>
      <point x="1005" y="938"/>
      <point x="1005" y="770" type="curve" smooth="yes"/>
      <point x="1005" y="0" type="line"/>
      <point x="817" y="0" type="line"/>
      <point x="817" y="783" type="line" smooth="yes"/>
      <point x="817" y="888"/>
      <point x="727" y="938"/>
      <point x="596" y="938" type="curve" smooth="yes"/>
      <point x="412" y="938"/>
      <point x="332" y="857"/>
      <point x="332" y="755" type="curve" smooth="yes"/>
      <point x="332" y="0" type="line"/>
    </contour>
  </outline>
</glyph>
<glyph name="o" format="1">
  <advance width="1123"/>
  <unicode hex="006F"/>
  <outline>
    <contour>
      <point x="807" y="763" type="line" smooth="yes"/>
      <point x="807" y="888"/>
      <point x="706" y="938"/>
      <point x="561" y="938" type="curve" smooth="yes"/>
      <point x="422" y="938"/>
      <point x="315" y="894"/>
      <point x="315" y="763" type="curve" smooth="yes"/>
      <point x="315" y="301" type="line" smooth="yes"/>
      <point x="315" y="170"/>
      <point x="414" y="121"/>
      <point x="561" y="121" type="curve" smooth="yes"/>
      <point x="700" y="121"/>
      <point x="807" y="171"/>
      <point x="807" y="301" type="curve" smooth="yes"/>
    </contour>
    <contour>
      <point x="995" y="747" type="curve" smooth="yes"/>
      <point x="995" y="317" type="line" smooth="yes"/>
      <point x="995" y="122"/>
      <point x="890" y="-20"/>
      <point x="561" y="-20" type="curve" smooth="yes"/>
      <point x="245" y="-20"/>
      <point x="128" y="121"/>
      <point x="128" y="317" type="curve" smooth="yes"/>
      <point x="128" y="747" type="line" smooth="yes"/>
      <point x="128" y="947"/>
      <point x="298" y="1080"/>
      <point x="561" y="1080" type="curve" smooth="yes"/>
      <point x="824" y="1080"/>
      <point x="995" y="947"/>
    </contour>
  </outline>
</glyph>
<glyph name="p" format="1">
  <advance width="1194"/>
  <unicode hex="0070"/>
  <outline>
    <contour>
      <point x="317" y="60" type="curve"/>
      <point x="317" y="209" type="line"/>
      <point x="335" y="199"/>
      <point x="436" y="117"/>
      <point x="603" y="117" type="curve" smooth="yes"/>
      <point x="751" y="117"/>
      <point x="856" y="194"/>
      <point x="856" y="324" type="curve" smooth="yes"/>
      <point x="856" y="742" type="line" smooth="yes"/>
      <point x="856" y="869"/>
      <point x="748" y="934"/>
      <point x="610" y="934" type="curve" smooth="yes"/>
      <point x="470" y="934"/>
      <point x="373" y="842"/>
      <point x="363" y="821" type="curve"/>
      <point x="334" y="967" type="line"/>
      <point x="384" y="1022"/>
      <point x="508" y="1076"/>
      <point x="639" y="1076" type="curve" smooth="yes"/>
      <point x="910" y="1076"/>
      <point x="1044" y="933"/>
      <point x="1044" y="729" type="curve" smooth="yes"/>
      <point x="1044" y="344" type="line" smooth="yes"/>
      <point x="1044" y="131"/>
      <point x="891" y="-24"/>
      <point x="615" y="-24" type="curve" smooth="yes"/>
      <point x="447" y="-24"/>
      <point x="357" y="40"/>
    </contour>
    <contour>
      <point x="365" y="-371" type="line"/>
      <point x="177" y="-371" type="line"/>
      <point x="177" y="1060" type="line"/>
      <point x="325" y="1060" type="line"/>
      <point x="365" y="913" type="line"/>
    </contour>
  </outline>
</glyph>
<glyph name="q" format="1">
  <advance width="1198"/>
  <unicode hex="0071"/>
  <outline>
    <contour>
      <point x="1017" y="-371" type="line"/>
      <point x="829" y="-371" type="line"/>
      <point x="829" y="47" type="line"/>
      <point x="764" y="-3"/>
      <point x="643" y="-24"/>
      <point x="570" y="-24" type="curve" smooth="yes"/>
      <point x="299" y="-24"/>
      <point x="150" y="110"/>
      <point x="150" y="314" type="curve" smooth="yes"/>
      <point x="150" y="728" type="line" smooth="yes"/>
      <point x="150" y="941"/>
      <point x="281" y="1076"/>
      <point x="557" y="1076" type="curve" smooth="yes"/>
      <point x="665" y="1076"/>
      <point x="799" y="1025"/>
      <point x="829" y="975" type="curve"/>
      <point x="829" y="1056" type="line"/>
      <point x="1017" y="1056" type="line"/>
    </contour>
    <contour>
      <point x="585" y="935" type="curve" smooth="yes"/>
      <point x="437" y="935"/>
      <point x="338" y="878"/>
      <point x="338" y="748" type="curve" smooth="yes"/>
      <point x="338" y="284" type="line" smooth="yes"/>
      <point x="338" y="157"/>
      <point x="444" y="118"/>
      <point x="582" y="118" type="curve" smooth="yes"/>
      <point x="722" y="118"/>
      <point x="819" y="180"/>
      <point x="829" y="201" type="curve"/>
      <point x="829" y="810" type="line" smooth="yes"/>
      <point x="829" y="869"/>
      <point x="752" y="935"/>
    </contour>
  </outline>
</glyph>
<glyph name="r" format="1">
  <advance width="776"/>
  <unicode hex="0072"/>
  <outline>
    <contour>
      <point x="184" y="0" type="line"/>
      <point x="184" y="1060" type="line"/>
      <point x="372" y="1060" type="line"/>
      <point x="372" y="950" type="line"/>
      <point x="423" y="1027"/>
      <point x="628" y="1088"/>
      <point x="718" y="1075" type="curve"/>
      <point x="712" y="914" type="line"/>
      <point x="593" y="904"/>
      <point x="402" y="893"/>
      <point x="372" y="812" type="curve"/>
      <point x="372" y="0" type="line"/>
    </contour>
  </outline>
</glyph>
<glyph name="s" format="1">
  <advance width="945.141596118"/>
  <unicode hex="0073"/>
  <outline>
    <contour>
      <point x="109" y="150" type="curve"/>
      <point x="202" y="259" type="line"/>
      <point x="245" y="212"/>
      <point x="332" y="128"/>
      <point x="476" y="125" type="curve" smooth="yes"/>
      <point x="609" y="123"/>
      <point x="673" y="166"/>
      <point x="683" y="266" type="curve" smooth="yes"/>
      <point x="690" y="344"/>
      <point x="640" y="396"/>
      <point x="566" y="427" type="curve" smooth="yes"/>
      <point x="343" y="521" type="line" smooth="yes"/>
      <point x="205" y="577"/>
      <point x="120" y="657"/>
      <point x="125" y="817" type="curve" smooth="yes"/>
      <point x="131" y="1009"/>
      <point x="293" y="1081"/>
      <point x="476" y="1081" type="curve" smooth="yes"/>
      <point x="671" y="1081"/>
      <point x="780" y="994"/>
      <point x="828" y="930" type="curve"/>
      <point x="745" y="819" type="line"/>
      <point x="692" y="874"/>
      <point x="607" y="935"/>
      <point x="488" y="937" type="curve" smooth="yes"/>
      <point x="362" y="939"/>
      <point x="305" y="891"/>
      <point x="301" y="819" type="curve" smooth="yes"/>
      <point x="297" y="759"/>
      <point x="321" y="713"/>
      <point x="407" y="676" type="curve" smooth="yes"/>
      <point x="637" y="575" type="line" smooth="yes"/>
      <point x="771" y="517"/>
      <point x="852" y="448"/>
      <point x="848" y="273" type="curve" smooth="yes"/>
      <point x="845" y="84"/>
      <point x="703" y="-23"/>
      <point x="481" y="-20" type="curve" smooth="yes"/>
      <point x="328" y="-16"/>
      <point x="181" y="47"/>
    </contour>
  </outline>
</glyph>
<glyph name="t" format="1">
  <advance width="780"/>
  <unicode hex="0074"/>
  <outline>
    <contour>
      <point x="581" y="-2" type="line" smooth="yes"/>
      <point x="342" y="-2"/>
      <point x="224" y="123"/>
      <point x="224" y="326" type="curve" smooth="yes"/>
      <point x="224" y="947" type="line"/>
      <point x="47" y="947" type="line"/>
      <point x="47" y="1064" type="line"/>
      <point x="231" y="1064" type="line"/>
      <point x="254" y="1388" type="line"/>
      <point x="411" y="1388" type="line"/>
      <point x="411" y="1064" type="line"/>
      <point x="689" y="1064" type="line"/>
      <point x="689" y="947" type="line"/>
      <point x="411" y="947" type="line"/>
      <point x="411" y="318" type="line" smooth="yes"/>
      <point x="411" y="198"/>
      <point x="457" y="144"/>
      <point x="608" y="144" type="curve" smooth="yes"/>
      <point x="699" y="144" type="line"/>
      <point x="699" y="-2" type="line"/>
    </contour>
  </outline>
</glyph>
<glyph name="u" format="1">
  <advance width="1197"/>
  <unicode hex="0075"/>
  <outline>
    <contour>
      <point x="1024" y="1060" type="line"/>
      <point x="1024" y="0" type="line"/>
      <point x="836" y="0" type="line"/>
      <point x="836" y="103" type="line"/>
      <point x="774" y="31"/>
      <point x="682" y="-20"/>
      <point x="528" y="-20" type="curve" smooth="yes"/>
      <point x="267" y="-20"/>
      <point x="174" y="122"/>
      <point x="174" y="290" type="curve" smooth="yes"/>
      <point x="174" y="1060" type="line"/>
      <point x="362" y="1060" type="line"/>
      <point x="362" y="285" type="line" smooth="yes"/>
      <point x="362" y="180"/>
      <point x="445" y="122"/>
      <point x="576" y="122" type="curve" smooth="yes"/>
      <point x="760" y="122"/>
      <point x="836" y="208"/>
      <point x="836" y="297" type="curve" smooth="yes"/>
      <point x="836" y="1060" type="line"/>
    </contour>
  </outline>
</glyph>
<glyph name="v" format="1">
  <advance width="1106"/>
  <unicode hex="0076"/>
  <outline>
    <contour>
      <point x="673" y="0" type="line"/>
      <point x="465" y="0" type="line"/>
      <point x="72" y="1060" type="line"/>
      <point x="261" y="1060" type="line"/>
      <point x="572" y="194" type="line"/>
      <point x="848" y="1060" type="line"/>
      <point x="1032" y="1060" type="line"/>
    </contour>
  </outline>
</glyph>
<glyph name="w" format="1">
  <advance width="1597"/>
  <unicode hex="0077"/>
  <outline>
    <contour>
      <point x="1230" y="0" type="line"/>
      <point x="1041" y="0" type="line"/>
      <point x="757" y="1060" type="line"/>
      <point x="928" y="1060" type="line"/>
      <point x="1138" y="209" type="line"/>
      <point x="1361" y="1060" type="line"/>
      <point x="1527" y="1060" type="line"/>
    </contour>
    <contour>
      <point x="550" y="0" type="line"/>
      <point x="362" y="0" type="line"/>
      <point x="78" y="1060" type="line"/>
      <point x="249" y="1060" type="line"/>
      <point x="459" y="209" type="line"/>
      <point x="681" y="1060" type="line"/>
      <point x="848" y="1060" type="line"/>
    </contour>
  </outline>
</glyph>
<glyph name="x" format="1">
  <advance width="1011"/>
  <unicode hex="0078"/>
  <outline>
    <contour>
      <point x="239" y="0" type="line"/>
      <point x="59" y="0" type="line"/>
      <point x="781" y="1060" type="line"/>
      <point x="955" y="1060" type="line"/>
    </contour>
    <contour>
      <point x="65" y="1060" type="line"/>
      <point x="247" y="1060" type="line"/>
      <point x="960" y="0" type="line"/>
      <point x="784" y="0" type="line"/>
    </contour>
  </outline>
</glyph>
<glyph name="y" format="1">
  <advance width="1143"/>
  <unicode hex="0079"/>
  <outline>
    <contour>
      <point x="731" y="45" type="line"/>
      <point x="550" y="-38" type="line"/>
      <point x="79" y="1060" type="line"/>
      <point x="278" y="1060" type="line"/>
      <point x="618" y="216" type="line"/>
      <point x="923" y="1060" type="line"/>
      <point x="1113" y="1060" type="line"/>
    </contour>
    <contour>
      <point x="237" y="-322" type="line"/>
      <point x="237" y="-175" type="line"/>
      <point x="335" y="-175" type="line" smooth="yes"/>
      <point x="418" y="-175"/>
      <point x="496" y="-144"/>
      <point x="535" y="15" type="curve"/>
      <point x="742" y="78" type="line"/>
      <point x="644" y="-219"/>
      <point x="572" y="-322"/>
      <point x="342" y="-322" type="curve" smooth="yes"/>
    </contour>
  </outline>
</glyph>
<glyph name="z" format="1">
  <advance width="850"/>
  <unicode hex="007A"/>
  <outline>
    <contour>
      <point x="111" y="1060" type="line"/>
      <point x="777" y="1060" type="line"/>
      <point x="777" y="945" type="line"/>
      <point x="288" y="124" type="line"/>
      <point x="785" y="124" type="line"/>
      <point x="785" y="0" type="line"/>
      <point x="93" y="0" type="line"/>
      <point x="93" y="118" type="line"/>
      <point x="579" y="937" type="line"/>
      <point x="111" y="937" type="line"/>
    </contour>
  </outline>
</glyph>
<glyph name="bar" format="1">
  <advance width="666"/>
  <unicode hex="007C"/>
  <outline>
    <contour>
      <point x="432" y="1555" type="line"/>
      <point x="432" y="-167" type="line"/>
      <point x="254" y="-167" type="line"/>
      <point x="254" y="1555" type="line"/>
    </contour>
  </outline>
</glyph>
<glyph name="exclamdown" format="1">
  <advance width="468"/>
  <unicode hex="00A1"/>
  <outline>
    <contour>
      <point x="349" y="878" type="line"/>
      <point x="144" y="878" type="line"/>
      <point x="144" y="1084" type="line"/>
      <point x="349" y="1084" type="line"/>
    </contour>
    <contour>
      <point x="347" y="-362" type="line"/>
      <point x="145" y="-362" type="line"/>
      <point x="214" y="713" type="line"/>
      <point x="290" y="713" type="line"/>
    </contour>
  </outline>
</glyph>
<glyph name="brokenbar" format="1">
  <advance width="480"/>
  <unicode hex="00A6"/>
  <outline>
    <contour>
      <point x="330" y="1266" type="line"/>
      <point x="330" y="704" type="line"/>
      <point x="144" y="704" type="line"/>
      <point x="144" y="1266" type="line"/>
    </contour>
    <contour>
      <point x="330" y="494" type="line"/>
      <point x="330" y="-68" type="line"/>
      <point x="144" y="-68" type="line"/>
      <point x="144" y="494" type="line"/>
    </contour>
  </outline>
</glyph>
<glyph name="dieresis" format="1">
  <advance width="956"/>
  <unicode hex="00A8"/>
  <outline>
    <contour>
      <point x="620" y="1265" type="line"/>
      <point x="620" y="1446" type="line"/>
      <point x="826" y="1446" type="line"/>
      <point x="826" y="1265" type="line"/>
    </contour>
    <contour>
      <point x="117" y="1265" type="line"/>
      <point x="117" y="1446" type="line"/>
      <point x="323" y="1446" type="line"/>
      <point x="323" y="1265" type="line"/>
    </contour>
  </outline>
</glyph>
<glyph name="copyright" format="1">
  <advance width="1857"/>
  <unicode hex="00A9"/>
  <outline>
    <contour>
      <point x="930" y="82" type="curve" smooth="yes"/>
      <point x="566" y="82"/>
      <point x="281" y="357"/>
      <point x="281" y="722" type="curve" smooth="yes"/>
      <point x="281" y="1086"/>
      <point x="566" y="1361"/>
      <point x="930" y="1361" type="curve" smooth="yes"/>
      <point x="1296" y="1361"/>
      <point x="1579" y="1086"/>
      <point x="1579" y="722" type="curve" smooth="yes"/>
      <point x="1579" y="357"/>
      <point x="1296" y="82"/>
    </contour>
    <contour>
      <point x="928" y="-14" type="curve" smooth="yes"/>
      <point x="1344" y="-14"/>
      <point x="1685" y="303"/>
      <point x="1685" y="722" type="curve" smooth="yes"/>
      <point x="1685" y="1139"/>
      <point x="1344" y="1456"/>
      <point x="928" y="1456" type="curve" smooth="yes"/>
      <point x="515" y="1456"/>
      <point x="172" y="1139"/>
      <point x="172" y="722" type="curve" smooth="yes"/>
      <point x="172" y="303"/>
      <point x="515" y="-14"/>
    </contour>
    <contour>
      <point x="1148" y="836" type="line"/>
      <point x="1264" y="836" type="line"/>
      <point x="1264" y="861" type="line" smooth="yes"/>
      <point x="1264" y="1043"/>
      <point x="1215" y="1182"/>
      <point x="938" y="1182" type="curve" smooth="yes"/>
      <point x="650" y="1182"/>
      <point x="587" y="1050"/>
      <point x="587" y="868" type="curve" smooth="yes"/>
      <point x="587" y="590" type="line" smooth="yes"/>
      <point x="587" y="411"/>
      <point x="652" y="287"/>
      <point x="939" y="287" type="curve" smooth="yes"/>
      <point x="1215" y="287"/>
      <point x="1264" y="422"/>
      <point x="1264" y="598" type="curve" smooth="yes"/>
      <point x="1264" y="632" type="line"/>
      <point x="1148" y="632" type="line"/>
      <point x="1148" y="571" type="line" smooth="yes"/>
      <point x="1148" y="419"/>
      <point x="1092" y="376"/>
      <point x="939" y="376" type="curve" smooth="yes"/>
      <point x="787" y="376"/>
      <point x="707" y="419"/>
      <point x="707" y="571" type="curve" smooth="yes"/>
      <point x="707" y="890" type="line" smooth="yes"/>
      <point x="707" y="1042"/>
      <point x="787" y="1091"/>
      <point x="938" y="1091" type="curve" smooth="yes"/>
      <point x="1090" y="1091"/>
      <point x="1148" y="1042"/>
      <point x="1148" y="890" type="curve" smooth="yes"/>
    </contour>
  </outline>
</glyph>
<glyph name="registered" format="1">
  <advance width="1857"/>
  <unicode hex="00AE"/>
  <outline>
    <contour>
      <point x="930.0" y="82.0" type="curve" smooth="yes"/>
      <point x="566.0" y="82.0"/>
      <point x="281.0" y="357.0"/>
      <point x="281.0" y="722.0" type="curve" smooth="yes"/>
      <point x="281.0" y="1086.0"/>
      <point x="566.0" y="1361.0"/>
      <point x="930.0" y="1361.0" type="curve" smooth="yes"/>
      <point x="1296.0" y="1361.0"/>
      <point x="1579.0" y="1086.0"/>
      <point x="1579.0" y="722.0" type="curve" smooth="yes"/>
      <point x="1579.0" y="357.0"/>
      <point x="1296.0" y="82.0"/>
    </contour>
    <contour>
      <point x="928.0" y="-14.0" type="curve" smooth="yes"/>
      <point x="1344.0" y="-14.0"/>
      <point x="1685.0" y="303.0"/>
      <point x="1685.0" y="722.0" type="curve" smooth="yes"/>
      <point x="1685.0" y="1139.0"/>
      <point x="1344.0" y="1456.0"/>
      <point x="928.0" y="1456.0" type="curve" smooth="yes"/>
      <point x="515.0" y="1456.0"/>
      <point x="172.0" y="1139.0"/>
      <point x="172.0" y="722.0" type="curve" smooth="yes"/>
      <point x="172.0" y="303.0"/>
      <point x="515.0" y="-14.0"/>
    </contour>
    <contour>
      <point x="747" y="1068" type="line"/>
      <point x="1023" y="1068" type="line" smooth="yes"/>
      <point x="1141" y="1068"/>
      <point x="1150" y="966"/>
      <point x="1150" y="907" type="curve" smooth="yes"/>
      <point x="1150" y="865" type="line"/>
      <point x="1149" y="802"/>
      <point x="1128" y="730"/>
      <point x="1014" y="730" type="curve" smooth="yes"/>
      <point x="747" y="730" type="line"/>
    </contour>
    <contour>
      <point x="616" y="307" type="line"/>
      <point x="747" y="307" type="line"/>
      <point x="747" y="640" type="line"/>
      <point x="1006" y="640" type="line"/>
      <point x="1186" y="307" type="line"/>
      <point x="1314" y="307" type="line"/>
      <point x="1130" y="654" type="line"/>
      <point x="1222" y="679"/>
      <point x="1282" y="748"/>
      <point x="1282" y="882" type="curve" smooth="yes"/>
      <point x="1282" y="914" type="line" smooth="yes"/>
      <point x="1278" y="1088"/>
      <point x="1176" y="1159"/>
      <point x="1019" y="1159" type="curve" smooth="yes"/>
      <point x="616" y="1159" type="line"/>
    </contour>
  </outline>
</glyph>
<glyph name="degree" format="1">
  <advance width="1036"/>
  <unicode hex="00B0"/>
  <outline>
    <contour>
      <point x="770" y="1445"/>
      <point x="866" y="1330"/>
      <point x="866" y="1123" type="curve" smooth="yes"/>
      <point x="866" y="916"/>
      <point x="773" y="799"/>
      <point x="489" y="799" type="curve" smooth="yes"/>
      <point x="270" y="799"/>
      <point x="160" y="950"/>
      <point x="160" y="1122" type="curve" smooth="yes"/>
      <point x="160" y="1295"/>
      <point x="270" y="1445"/>
      <point x="490" y="1445" type="curve" smooth="yes"/>
    </contour>
    <contour>
      <point x="717" y="1221"/>
      <point x="666" y="1360"/>
      <point x="490" y="1360" type="curve" smooth="yes"/>
      <point x="318" y="1360"/>
      <point x="265" y="1222"/>
      <point x="265" y="1123" type="curve" smooth="yes"/>
      <point x="265" y="1024"/>
      <point x="317" y="885"/>
      <point x="490" y="885" type="curve" smooth="yes"/>
      <point x="665" y="885"/>
      <point x="717" y="1024"/>
      <point x="717" y="1122" type="curve" smooth="yes"/>
    </contour>
  </outline>
</glyph>
<glyph name="plusminus" format="1">
  <advance width="910"/>
  <unicode hex="00B1"/>
  <outline>
    <contour>
      <point x="540" y="856" type="line"/>
      <point x="540" y="672" type="line"/>
      <point x="765" y="672" type="line"/>
      <point x="765" y="502" type="line"/>
      <point x="540" y="502" type="line"/>
      <point x="540" y="318" type="line"/>
      <point x="363" y="318" type="line"/>
      <point x="363" y="502" type="line"/>
      <point x="138" y="502" type="line"/>
      <point x="138" y="672" type="line"/>
      <point x="363" y="672" type="line"/>
      <point x="363" y="856" type="line"/>
    </contour>
    <contour>
      <point x="765" y="175" type="line"/>
      <point x="765" y="5" type="line"/>
      <point x="138" y="5" type="line"/>
      <point x="138" y="175" type="line"/>
    </contour>
  </outline>
</glyph>
<glyph name="acute" format="1">
  <advance width="616"/>
  <unicode hex="00B4"/>
  <outline>
    <contour>
      <point x="115" y="1496" type="line"/>
      <point x="340" y="1496" type="line"/>
      <point x="478" y="1155" type="line"/>
      <point x="372" y="1155" type="line"/>
    </contour>
  </outline>
</glyph>
<glyph name="periodcentered" format="1">
  <advance width="412"/>
  <unicode hex="00B7"/>
  <outline>
    <contour>
      <point x="108" y="1446" type="line"/>
      <point x="313" y="1446" type="line"/>
      <point x="313" y="1240" type="line"/>
      <point x="108" y="1240" type="line"/>
    </contour>
  </outline>
</glyph>
<glyph name="cedilla" format="1">
  <advance width="579"/>
  <unicode hex="00B8"/>
  <outline>
    <contour>
      <point x="282" y="0" type="line"/>
      <point x="220" y="0" type="line"/>
      <point x="220" y="-158" type="line"/>
      <point x="320" y="-161"/>
      <point x="380" y="-229"/>
      <point x="380" y="-290" type="curve" smooth="yes"/>
      <point x="380" y="-342"/>
      <point x="338" y="-389"/>
      <point x="240" y="-389" type="curve" smooth="yes"/>
      <point x="219" y="-389"/>
      <point x="195" y="-387"/>
      <point x="169" y="-382" type="curve"/>
      <point x="169" y="-478" type="line"/>
      <point x="203" y="-484"/>
      <point x="234" y="-486"/>
      <point x="262" y="-486" type="curve" smooth="yes"/>
      <point x="427" y="-486"/>
      <point x="509" y="-397"/>
      <point x="509" y="-303" type="curve" smooth="yes"/>
      <point x="509" y="-214"/>
      <point x="435" y="-120"/>
      <point x="288" y="-94" type="curve"/>
    </contour>
  </outline>
</glyph>
<glyph name="onesuperior" format="1">
  <advance width="315"/>
  <unicode hex="00B9"/>
  <outline>
    <contour>
      <point x="117" y="1596" type="curve"/>
      <point x="238" y="1596" type="line"/>
      <point x="238" y="639" type="line"/>
      <point x="88" y="639" type="line"/>
      <point x="88" y="1368" type="line"/>
      <point x="8" y="1368" type="line"/>
      <point x="8" y="1475" type="line"/>
      <point x="65" y="1488"/>
      <point x="105" y="1531"/>
    </contour>
  </outline>
</glyph>
<glyph name="Aacute" format="1">
  <advance width="1376"/>
  <unicode hex="00C1"/>
  <outline>
    <contour>
      <point x="506.5" y="1946" type="line"/>
      <point x="763.5" y="1605" type="line"/>
      <point x="869.5" y="1605" type="line"/>
      <point x="731.5" y="1946" type="line"/>
    </contour>
    <contour>
      <point x="959.0" y="417" type="line"/>
      <point x="424.0" y="417" type="line"/>
      <point x="693.0" y="1184" type="line"/>
    </contour>
    <contour>
      <point x="1308.0" y="0" type="line"/>
      <point x="776.0" y="1446" type="line"/>
      <point x="599.0" y="1446" type="line"/>
      <point x="68.0" y="0" type="line"/>
      <point x="277.0" y="0" type="line"/>
      <point x="376.0" y="282" type="line"/>
      <point x="1005.0" y="282" type="line"/>
      <point x="1103.0" y="0" type="line"/>
    </contour>
  </outline>
</glyph>
<glyph name="Aring" format="1">
  <advance width="1376"/>
  <unicode hex="00C5"/>
  <outline>
    <contour>
      <point x="688.5" y="1536.1328125" type="curve" smooth="yes"/>
      <point x="631.5" y="1536.1328125"/>
      <point x="579.5" y="1562.1328125"/>
      <point x="579.5" y="1650.1328125" type="curve" smooth="yes"/>
      <point x="579.5" y="1737.1328125"/>
      <point x="632.5" y="1762.1328125"/>
      <point x="688.5" y="1762.1328125" type="curve" smooth="yes"/>
      <point x="746.5" y="1762.1328125"/>
      <point x="796.5" y="1735.1328125"/>
      <point x="796.5" y="1648.1328125" type="curve" smooth="yes"/>
      <point x="796.5" y="1561.1328125"/>
      <point x="745.5" y="1536.1328125"/>
    </contour>
    <contour>
      <point x="688.5" y="1471.1328125" type="curve" smooth="yes"/>
      <point x="788.5" y="1471.1328125"/>
      <point x="882.5" y="1526.1328125"/>
      <point x="882.5" y="1649.1328125" type="curve" smooth="yes"/>
      <point x="882.5" y="1772.1328125"/>
      <point x="788.5" y="1827.1328125"/>
      <point x="688.5" y="1827.1328125" type="curve" smooth="yes"/>
      <point x="588.5" y="1827.1328125"/>
      <point x="493.5" y="1772.1328125"/>
      <point x="493.5" y="1649.1328125" type="curve" smooth="yes"/>
      <point x="493.5" y="1526.1328125"/>
      <point x="588.5" y="1471.1328125"/>
    </contour>
    <contour>
      <point x="959.0" y="417.0" type="line"/>
      <point x="424.0" y="417.0" type="line"/>
      <point x="693.0" y="1184.0" type="line"/>
    </contour>
    <contour>
      <point x="1308.0" y="0.0" type="line"/>
      <point x="776.0" y="1446.0" type="line"/>
      <point x="599.0" y="1446.0" type="line"/>
      <point x="68.0" y="0.0" type="line"/>
      <point x="277.0" y="0.0" type="line"/>
      <point x="376.0" y="282.0" type="line"/>
      <point x="1005.0" y="282.0" type="line"/>
      <point x="1103.0" y="0.0" type="line"/>
    </contour>
  </outline>
</glyph>
<glyph name="Icircumflex" format="1">
  <advance width="458"/>
  <unicode hex="00CE"/>
  <outline>
    <contour>
      <point x="86" y="1459" type="line"/>
      <point x="374" y="1459" type="line"/>
      <point x="374" y="0" type="line"/>
      <point x="86" y="0" type="line"/>
    </contour>
    <contour>
      <point x="58" y="1825" type="line"/>
      <point x="396" y="1825" type="line"/>
      <point x="556" y="1529" type="line"/>
      <point x="328" y="1529" type="line"/>
      <point x="227" y="1673" type="line"/>
      <point x="128" y="1529" type="line"/>
      <point x="-98" y="1529" type="line"/>
    </contour>
  </outline>
</glyph>
<glyph name="Idieresis" format="1">
  <advance width="458"/>
  <unicode hex="00CF"/>
  <outline>
    <contour>
      <point x="86" y="1459" type="line"/>
      <point x="374" y="1459" type="line"/>
      <point x="374" y="0" type="line"/>
      <point x="86" y="0" type="line"/>
    </contour>
    <contour>
      <point x="-134" y="1596" type="line"/>
      <point x="-134" y="1826" type="line"/>
      <point x="132" y="1826" type="line"/>
      <point x="132" y="1596" type="line"/>
    </contour>
    <contour>
      <point x="326" y="1596" type="line"/>
      <point x="326" y="1826" type="line"/>
      <point x="592" y="1826" type="line"/>
      <point x="592" y="1596" type="line"/>
    </contour>
  </outline>
</glyph>
<glyph name="Ocircumflex" format="1">
  <advance width="1532"/>
  <unicode hex="00D4"/>
  <outline>
    <contour>
      <point x="696.5" y="1871" type="line"/>
      <point x="479.5" y="1605" type="line"/>
      <point x="640.5" y="1605" type="line"/>
      <point x="772.5" y="1779" type="line"/>
      <point x="896.5" y="1605" type="line"/>
      <point x="1052.5" y="1605" type="line"/>
      <point x="846.5" y="1871" type="line"/>
    </contour>
    <contour>
      <point x="775.0" y="-24" type="curve" smooth="yes"/>
      <point x="1240.0" y="-24"/>
      <point x="1349.0" y="203"/>
      <point x="1349.0" y="500" type="curve" smooth="yes"/>
      <point x="1349.0" y="942" type="line" smooth="yes"/>
      <point x="1349.0" y="1248"/>
      <point x="1242.0" y="1483"/>
      <point x="775.0" y="1483" type="curve" smooth="yes"/>
      <point x="290.0" y="1483"/>
      <point x="183.0" y="1261"/>
      <point x="183.0" y="955" type="curve" smooth="yes"/>
      <point x="183.0" y="486" type="line" smooth="yes"/>
      <point x="183.0" y="185"/>
      <point x="292.0" y="-24"/>
    </contour>
    <contour>
      <point x="775.0" y="126" type="curve" smooth="yes"/>
      <point x="519.0" y="126"/>
      <point x="385.0" y="199"/>
      <point x="385.0" y="455" type="curve" smooth="yes"/>
      <point x="385.0" y="992" type="line" smooth="yes"/>
      <point x="385.0" y="1249"/>
      <point x="521.0" y="1332"/>
      <point x="775.0" y="1332" type="curve" smooth="yes"/>
      <point x="1031.0" y="1332"/>
      <point x="1148.0" y="1249"/>
      <point x="1148.0" y="992" type="curve" smooth="yes"/>
      <point x="1148.0" y="455" type="line" smooth="yes"/>
      <point x="1148.0" y="199"/>
      <point x="1033.0" y="126"/>
    </contour>
  </outline>
</glyph>
<glyph name="multiply" format="1">
  <advance width="973"/>
  <unicode hex="00D7"/>
  <outline>
    <contour>
      <point x="735" y="216" type="line"/>
      <point x="844" y="344" type="line"/>
      <point x="608" y="576" type="line"/>
      <point x="844" y="806" type="line"/>
      <point x="735" y="937" type="line"/>
      <point x="487" y="694" type="line"/>
      <point x="239" y="937" type="line"/>
      <point x="129" y="806" type="line"/>
      <point x="366" y="576" type="line"/>
      <point x="129" y="344" type="line"/>
      <point x="239" y="216" type="line"/>
      <point x="487" y="458" type="line"/>
    </contour>
  </outline>
</glyph>
<glyph name="Oslash" format="1">
  <advance width="1124"/>
  <unicode hex="00D8"/>
  <outline>
    <contour>
      <point x="868" y="1654" type="line"/>
      <point x="952" y="1638" type="line"/>
      <point x="892" y="1426" type="line"/>
      <point x="1016" y="1348"/>
      <point x="1056" y="1196"/>
      <point x="1056" y="1012" type="curve" smooth="yes"/>
      <point x="1056" y="445" type="line" smooth="yes"/>
      <point x="1056" y="175"/>
      <point x="966" y="-24"/>
      <point x="563" y="-24" type="curve" smooth="yes"/>
      <point x="469" y="-24"/>
      <point x="387" y="-18"/>
      <point x="325" y="-6" type="curve"/>
      <point x="273" y="-195" type="line"/>
      <point x="190" y="-179" type="line"/>
      <point x="247" y="25" type="line"/>
      <point x="113" y="99"/>
      <point x="68" y="255"/>
      <point x="68" y="440" type="curve" smooth="yes"/>
      <point x="68" y="1012" type="line" smooth="yes"/>
      <point x="68" y="1289"/>
      <point x="156" y="1483"/>
      <point x="562" y="1483" type="curve" smooth="yes"/>
      <point x="667" y="1483"/>
      <point x="759" y="1474"/>
      <point x="813" y="1459" type="curve"/>
    </contour>
    <contour>
      <point x="767" y="1086" type="line" smooth="yes"/>
      <point x="767" y="1167"/>
      <point x="737" y="1269"/>
      <point x="562" y="1269" type="curve" smooth="yes"/>
      <point x="386" y="1269"/>
      <point x="356" y="1167"/>
      <point x="356" y="1086" type="curve" smooth="yes"/>
      <point x="356" y="367" type="line" smooth="yes"/>
      <point x="356" y="284"/>
      <point x="385" y="182"/>
      <point x="563" y="182" type="curve" smooth="yes"/>
      <point x="741" y="182"/>
      <point x="768" y="284"/>
      <point x="768" y="367" type="curve" smooth="yes"/>
    </contour>
  </outline>
</glyph>
<glyph name="Yacute" format="1">
  <advance width="1093"/>
  <unicode hex="00DD"/>
  <outline>
    <contour>
      <point x="0" y="1459" type="line"/>
      <point x="327" y="1459" type="line"/>
      <point x="545" y="833" type="line"/>
      <point x="620" y="1003"/>
      <point x="706" y="1289"/>
      <point x="781" y="1459" type="curve"/>
      <point x="1093" y="1459" type="line"/>
      <point x="624" y="504" type="line"/>
      <point x="624" y="0" type="line"/>
      <point x="313" y="0" type="line"/>
      <point x="313" y="504" type="line"/>
    </contour>
    <contour>
      <point x="474" y="1848" type="line"/>
      <point x="739" y="1848" type="line"/>
      <point x="531" y="1529" type="line"/>
      <point x="370" y="1529" type="line"/>
    </contour>
  </outline>
</glyph>
<glyph name="aring" format="1">
  <advance width="1143"/>
  <unicode hex="00E5"/>
  <outline>
    <contour>
      <point x="1080" y="131" type="line"/>
      <point x="969" y="131"/>
      <point x="949" y="169"/>
      <point x="949" y="274" type="curve" smooth="yes"/>
      <point x="949" y="715" type="line" smooth="yes"/>
      <point x="949" y="938"/>
      <point x="852" y="1104"/>
      <point x="572" y="1104" type="curve" smooth="yes"/>
      <point x="294" y="1104"/>
      <point x="154" y="977"/>
      <point x="154" y="763" type="curve" smooth="yes"/>
      <point x="154" y="711" type="line"/>
      <point x="335" y="711" type="line"/>
      <point x="335" y="762" type="line" smooth="yes"/>
      <point x="335" y="849"/>
      <point x="353" y="961"/>
      <point x="566" y="961" type="curve" smooth="yes"/>
      <point x="758" y="961"/>
      <point x="761" y="849"/>
      <point x="761" y="770" type="curve" smooth="yes"/>
      <point x="761" y="662"/>
      <point x="639" y="641"/>
      <point x="519" y="611" type="curve" smooth="yes"/>
      <point x="173" y="526"/>
      <point x="113" y="432"/>
      <point x="113" y="289" type="curve" smooth="yes"/>
      <point x="113" y="122"/>
      <point x="226" y="-20"/>
      <point x="451" y="-20" type="curve" smooth="yes"/>
      <point x="646" y="-20"/>
      <point x="735" y="71"/>
      <point x="782" y="145" type="curve"/>
      <point x="814" y="43"/>
      <point x="859" y="-12"/>
      <point x="1000" y="-12" type="curve" smooth="yes"/>
      <point x="1017" y="-12"/>
      <point x="1066" y="-10"/>
      <point x="1080" y="-8" type="curve"/>
    </contour>
    <contour>
      <point x="761" y="279" type="line"/>
      <point x="731" y="179"/>
      <point x="593" y="116"/>
      <point x="480" y="116" type="curve" smooth="yes"/>
      <point x="377" y="116"/>
      <point x="301" y="164"/>
      <point x="295" y="272" type="curve" smooth="yes"/>
      <point x="289" y="376"/>
      <point x="318" y="431"/>
      <point x="534" y="488" type="curve" smooth="yes"/>
      <point x="670" y="524"/>
      <point x="732" y="559"/>
      <point x="761" y="589" type="curve"/>
    </contour>
    <contour>
      <point x="545" y="1275" type="curve" smooth="yes"/>
      <point x="488" y="1275"/>
      <point x="436" y="1301"/>
      <point x="436" y="1389" type="curve" smooth="yes"/>
      <point x="436" y="1476"/>
      <point x="489" y="1501"/>
      <point x="545" y="1501" type="curve" smooth="yes"/>
      <point x="603" y="1501"/>
      <point x="653" y="1474"/>
      <point x="653" y="1387" type="curve" smooth="yes"/>
      <point x="653" y="1300"/>
      <point x="602" y="1275"/>
    </contour>
    <contour>
      <point x="545" y="1210" type="curve" smooth="yes"/>
      <point x="645" y="1210"/>
      <point x="739" y="1265"/>
      <point x="739" y="1388" type="curve" smooth="yes"/>
      <point x="739" y="1511"/>
      <point x="645" y="1566"/>
      <point x="545" y="1566" type="curve" smooth="yes"/>
      <point x="445" y="1566"/>
      <point x="350" y="1511"/>
      <point x="350" y="1388" type="curve" smooth="yes"/>
      <point x="350" y="1265"/>
      <point x="445" y="1210"/>
    </contour>
  </outline>
</glyph>
<glyph name="igrave" format="1">
  <advance width="419"/>
  <unicode hex="00EC"/>
  <outline>
    <contour>
      <point x="96" y="1084" type="line"/>
      <point x="359" y="1084" type="line"/>
      <point x="359" y="0" type="line"/>
      <point x="96" y="0" type="line"/>
    </contour>
    <contour>
      <point x="18" y="1474" type="line"/>
      <point x="284" y="1474" type="line"/>
      <point x="388" y="1155" type="line"/>
      <point x="226" y="1155" type="line"/>
    </contour>
  </outline>
</glyph>
<glyph name="icircumflex" format="1">
  <advance width="419"/>
  <unicode hex="00EE"/>
  <outline>
    <contour>
      <point x="96" y="1084" type="line"/>
      <point x="359" y="1084" type="line"/>
      <point x="359" y="0" type="line"/>
      <point x="96" y="0" type="line"/>
    </contour>
    <contour>
      <point x="113" y="1479" type="line"/>
      <point x="451" y="1479" type="line"/>
      <point x="611" y="1184" type="line"/>
      <point x="383" y="1184" type="line"/>
      <point x="282" y="1328" type="line"/>
      <point x="183" y="1184" type="line"/>
      <point x="-43" y="1184" type="line"/>
    </contour>
  </outline>
</glyph>
<glyph name="divide" format="1">
  <advance width="774"/>
  <unicode hex="00F7"/>
  <outline>
    <contour>
      <point x="482" y="957" type="curve" smooth="yes"/>
      <point x="494" y="957"/>
      <point x="504" y="760"/>
      <point x="504" y="748" type="curve" smooth="yes"/>
      <point x="504" y="736"/>
      <point x="299" y="727"/>
      <point x="287" y="727" type="curve" smooth="yes"/>
      <point x="275" y="727"/>
      <point x="265" y="924"/>
      <point x="265" y="936" type="curve" smooth="yes"/>
      <point x="265" y="948"/>
      <point x="470" y="957"/>
    </contour>
    <contour>
      <point x="720" y="642" type="line"/>
      <point x="720" y="472" type="line"/>
      <point x="49" y="472" type="line"/>
      <point x="49" y="642" type="line"/>
    </contour>
    <contour>
      <point x="482" y="404" type="curve" smooth="yes"/>
      <point x="494" y="404"/>
      <point x="504" y="207"/>
      <point x="504" y="195" type="curve" smooth="yes"/>
      <point x="504" y="183"/>
      <point x="299" y="174"/>
      <point x="287" y="174" type="curve" smooth="yes"/>
      <point x="274" y="174"/>
      <point x="265" y="371"/>
      <point x="265" y="383" type="curve" smooth="yes"/>
      <point x="265" y="395"/>
      <point x="470" y="404"/>
    </contour>
  </outline>
</glyph>
<glyph name="oslash" format="1">
  <advance width="1167"/>
  <unicode hex="00F8"/>
  <outline>
    <contour>
      <point x="811" y="1251" type="line"/>
      <point x="901" y="1220" type="line"/>
      <point x="363" y="-226" type="line"/>
      <point x="271" y="-195" type="line"/>
    </contour>
    <component base="o"/>
  </outline>
</glyph>
<glyph name="ugrave" format="1">
  <advance width="1138"/>
  <unicode hex="00F9"/>
  <outline>
    <contour>
      <point x="988" y="1084" type="line"/>
      <point x="988" y="0" type="line"/>
      <point x="800" y="0" type="line"/>
      <point x="800" y="106" type="line"/>
      <point x="738" y="32"/>
      <point x="646" y="-20"/>
      <point x="492" y="-20" type="curve" smooth="yes"/>
      <point x="231" y="-20"/>
      <point x="138" y="125"/>
      <point x="138" y="297" type="curve" smooth="yes"/>
      <point x="138" y="1084" type="line"/>
      <point x="326" y="1084" type="line"/>
      <point x="326" y="292" type="line" smooth="yes"/>
      <point x="326" y="185"/>
      <point x="409" y="125"/>
      <point x="540" y="125" type="curve" smooth="yes"/>
      <point x="724" y="125"/>
      <point x="800" y="213"/>
      <point x="800" y="304" type="curve" smooth="yes"/>
      <point x="800" y="1084" type="line"/>
    </contour>
    <contour>
      <point x="296" y="1496" type="line"/>
      <point x="521" y="1496" type="line"/>
      <point x="659" y="1155" type="line"/>
      <point x="553" y="1155" type="line"/>
    </contour>
  </outline>
</glyph>
<glyph name="udieresis" format="1">
  <advance width="1138"/>
  <unicode hex="00FC"/>
  <outline>
    <contour>
      <point x="988" y="1084" type="line"/>
      <point x="988" y="0" type="line"/>
      <point x="800" y="0" type="line"/>
      <point x="800" y="106" type="line"/>
      <point x="738" y="32"/>
      <point x="646" y="-20"/>
      <point x="492" y="-20" type="curve" smooth="yes"/>
      <point x="231" y="-20"/>
      <point x="138" y="125"/>
      <point x="138" y="297" type="curve" smooth="yes"/>
      <point x="138" y="1084" type="line"/>
      <point x="326" y="1084" type="line"/>
      <point x="326" y="292" type="line" smooth="yes"/>
      <point x="326" y="185"/>
      <point x="409" y="125"/>
      <point x="540" y="125" type="curve" smooth="yes"/>
      <point x="724" y="125"/>
      <point x="800" y="213"/>
      <point x="800" y="304" type="curve" smooth="yes"/>
      <point x="800" y="1084" type="line"/>
    </contour>
    <contour>
      <point x="700" y="1265" type="line"/>
      <point x="700" y="1446" type="line"/>
      <point x="906" y="1446" type="line"/>
      <point x="906" y="1265" type="line"/>
    </contour>
    <contour>
      <point x="197" y="1265" type="line"/>
      <point x="197" y="1446" type="line"/>
      <point x="403" y="1446" type="line"/>
      <point x="403" y="1265" type="line"/>
    </contour>
  </outline>
</glyph>
<glyph name="ccircumflex" format="1">
  <advance width="1130"/>
  <unicode hex="0109"/>
  <outline>
    <contour>
      <point x="510.5" y="1468" type="line"/>
      <point x="293.5" y="1202" type="line"/>
      <point x="454.5" y="1202" type="line"/>
      <point x="586.5" y="1376" type="line"/>
      <point x="710.5" y="1202" type="line"/>
      <point x="866.5" y="1202" type="line"/>
      <point x="660.5" y="1468" type="line"/>
    </contour>
    <contour>
      <point x="828.0" y="679" type="line"/>
      <point x="1010.0" y="679" type="line"/>
      <point x="1010.0" y="768" type="line" smooth="yes"/>
      <point x="1010.0" y="981"/>
      <point x="850.0" y="1080"/>
      <point x="587.0" y="1080" type="curve" smooth="yes"/>
      <point x="324.0" y="1080"/>
      <point x="150.0" y="951"/>
      <point x="150.0" y="751" type="curve" smooth="yes"/>
      <point x="150.0" y="314" type="line" smooth="yes"/>
      <point x="150.0" y="118"/>
      <point x="271.0" y="-20"/>
      <point x="587.0" y="-20" type="curve" smooth="yes"/>
      <point x="916.0" y="-20"/>
      <point x="1010.0" y="94"/>
      <point x="1010.0" y="289" type="curve" smooth="yes"/>
      <point x="1010.0" y="356" type="line"/>
      <point x="828.0" y="356" type="line"/>
      <point x="828.0" y="283" type="line" smooth="yes"/>
      <point x="828.0" y="153"/>
      <point x="726.0" y="121"/>
      <point x="587.0" y="121" type="curve" smooth="yes"/>
      <point x="440.0" y="121"/>
      <point x="337.0" y="166"/>
      <point x="337.0" y="308" type="curve" smooth="yes"/>
      <point x="337.0" y="757" type="line" smooth="yes"/>
      <point x="337.0" y="888"/>
      <point x="441.0" y="938"/>
      <point x="587.0" y="938" type="curve" smooth="yes"/>
      <point x="732.0" y="938"/>
      <point x="828.0" y="899"/>
      <point x="828.0" y="774" type="curve" smooth="yes"/>
    </contour>
  </outline>
</glyph>
<glyph name="Ecaron" format="1">
  <advance width="1241"/>
  <unicode hex="011A"/>
  <outline>
    <contour>
      <point x="726.5" y="1605" type="line"/>
      <point x="943.5" y="1871" type="line"/>
      <point x="782.5" y="1871" type="line"/>
      <point x="650.5" y="1697" type="line"/>
      <point x="526.5" y="1871" type="line"/>
      <point x="370.5" y="1871" type="line"/>
      <point x="576.5" y="1605" type="line"/>
    </contour>
    <contour>
      <point x="231.0" y="1446" type="line"/>
      <point x="231.0" y="0" type="line"/>
      <point x="1083.0" y="0" type="line"/>
      <point x="1083.0" y="150" type="line"/>
      <point x="432.0" y="150" type="line"/>
      <point x="432.0" y="664" type="line"/>
      <point x="1013.0" y="664" type="line"/>
      <point x="1013.0" y="814" type="line"/>
      <point x="432.0" y="814" type="line"/>
      <point x="432.0" y="1296" type="line"/>
      <point x="1074.0" y="1296" type="line"/>
      <point x="1074.0" y="1446" type="line"/>
    </contour>
  </outline>
</glyph>
<glyph name="Gdotaccent" format="1">
  <advance width="1516"/>
  <unicode hex="0120"/>
  <outline>
    <contour>
      <point x="626" y="1846" type="line"/>
      <point x="626" y="1605" type="line"/>
      <point x="880" y="1605" type="line"/>
      <point x="880" y="1846" type="line"/>
    </contour>
    <contour>
      <point x="1232" y="0" type="line"/>
      <point x="1323" y="0" type="line"/>
      <point x="1323" y="735" type="line"/>
      <point x="883" y="735" type="line"/>
      <point x="883" y="588" type="line"/>
      <point x="1107" y="588" type="line"/>
      <point x="1107" y="455" type="line" smooth="yes"/>
      <point x="1107" y="199"/>
      <point x="1020" y="126"/>
      <point x="762" y="126" type="curve" smooth="yes"/>
      <point x="506" y="126"/>
      <point x="385" y="199"/>
      <point x="385" y="455" type="curve" smooth="yes"/>
      <point x="385" y="992" type="line" smooth="yes"/>
      <point x="385" y="1249"/>
      <point x="512" y="1332"/>
      <point x="766" y="1332" type="curve" smooth="yes"/>
      <point x="1022" y="1332"/>
      <point x="1107" y="1249"/>
      <point x="1107" y="992" type="curve" smooth="yes"/>
      <point x="1107" y="900" type="line"/>
      <point x="1302" y="900" type="line"/>
      <point x="1302" y="942" type="line" smooth="yes"/>
      <point x="1302" y="1248"/>
      <point x="1233" y="1483"/>
      <point x="766" y="1483" type="curve" smooth="yes"/>
      <point x="281" y="1483"/>
      <point x="183" y="1261"/>
      <point x="183" y="955" type="curve" smooth="yes"/>
      <point x="183" y="486" type="line" smooth="yes"/>
      <point x="183" y="185"/>
      <point x="279" y="-24"/>
      <point x="762" y="-24" type="curve" smooth="yes"/>
      <point x="1048" y="-24"/>
      <point x="1154" y="96"/>
      <point x="1188" y="216" type="curve"/>
    </contour>
  </outline>
</glyph>
<glyph name="Gcommaaccent" format="1">
  <advance width="1516"/>
  <unicode hex="0122"/>
  <outline>
    <contour>
      <point x="636" y="-146" type="line"/>
      <point x="636" y="-357" type="line"/>
      <point x="754" y="-357" type="line"/>
      <point x="754" y="-489"/>
      <point x="687" y="-596"/>
      <point x="640" y="-651" type="curve"/>
      <point x="721" y="-695" type="line"/>
      <point x="779" y="-641"/>
      <point x="870" y="-498"/>
      <point x="870" y="-307" type="curve" smooth="yes"/>
      <point x="870" y="-146" type="line"/>
    </contour>
    <contour>
      <point x="1232" y="0" type="line"/>
      <point x="1323" y="0" type="line"/>
      <point x="1323" y="735" type="line"/>
      <point x="883" y="735" type="line"/>
      <point x="883" y="588" type="line"/>
      <point x="1107" y="588" type="line"/>
      <point x="1107" y="455" type="line" smooth="yes"/>
      <point x="1107" y="199"/>
      <point x="1020" y="126"/>
      <point x="762" y="126" type="curve" smooth="yes"/>
      <point x="506" y="126"/>
      <point x="385" y="199"/>
      <point x="385" y="455" type="curve" smooth="yes"/>
      <point x="385" y="992" type="line" smooth="yes"/>
      <point x="385" y="1249"/>
      <point x="512" y="1332"/>
      <point x="766" y="1332" type="curve" smooth="yes"/>
      <point x="1022" y="1332"/>
      <point x="1107" y="1249"/>
      <point x="1107" y="992" type="curve" smooth="yes"/>
      <point x="1107" y="900" type="line"/>
      <point x="1302" y="900" type="line"/>
      <point x="1302" y="942" type="line" smooth="yes"/>
      <point x="1302" y="1248"/>
      <point x="1233" y="1483"/>
      <point x="766" y="1483" type="curve" smooth="yes"/>
      <point x="281" y="1483"/>
      <point x="183" y="1261"/>
      <point x="183" y="955" type="curve" smooth="yes"/>
      <point x="183" y="486" type="line" smooth="yes"/>
      <point x="183" y="185"/>
      <point x="279" y="-24"/>
      <point x="762" y="-24" type="curve" smooth="yes"/>
      <point x="1048" y="-24"/>
      <point x="1154" y="96"/>
      <point x="1188" y="216" type="curve"/>
    </contour>
  </outline>
</glyph>
<glyph name="dotlessi" format="1">
  <advance width="419"/>
  <unicode hex="0131"/>
  <outline>
    <contour>
      <point x="96" y="1084" type="line"/>
      <point x="359" y="1084" type="line"/>
      <point x="359" y="0" type="line"/>
      <point x="96" y="0" type="line"/>
    </contour>
  </outline>
</glyph>
<glyph name="Lslash" format="1">
  <advance width="722"/>
  <unicode hex="0141"/>
  <outline>
    <contour>
      <point x="82" y="1459" type="line"/>
      <point x="370" y="1459" type="line"/>
      <point x="370" y="956" type="line"/>
      <point x="626" y="1031" type="line"/>
      <point x="626" y="889" type="line"/>
      <point x="370" y="814" type="line"/>
      <point x="370" y="194" type="line"/>
      <point x="700" y="194" type="line"/>
      <point x="700" y="0" type="line"/>
      <point x="82" y="0" type="line"/>
      <point x="82" y="708" type="line"/>
      <point x="11" y="679" type="line"/>
      <point x="11" y="822" type="line"/>
      <point x="82" y="850" type="line"/>
    </contour>
  </outline>
</glyph>
<glyph name="OE" format="1">
  <advance width="1508"/>
  <unicode hex="0152"/>
  <outline>
    <contour>
      <point x="175" y="209"/>
      <point x="284" y="0"/>
      <point x="767" y="0" type="curve" smooth="yes"/>
      <point x="1391" y="0" type="line"/>
      <point x="1391" y="150" type="line"/>
      <point x="968" y="150" type="line"/>
      <point x="968" y="664" type="line"/>
      <point x="1321" y="664" type="line"/>
      <point x="1321" y="814" type="line"/>
      <point x="968" y="814" type="line"/>
      <point x="968" y="1296" type="line"/>
      <point x="1382" y="1296" type="line"/>
      <point x="1382" y="1446" type="line"/>
      <point x="767" y="1446" type="line"/>
      <point x="282" y="1446"/>
      <point x="175" y="1224"/>
      <point x="175" y="918" type="curve" smooth="yes"/>
      <point x="175" y="510" type="line" smooth="yes"/>
    </contour>
    <contour>
      <point x="767" y="150" type="line"/>
      <point x="511" y="150"/>
      <point x="377" y="223"/>
      <point x="377" y="479" type="curve" smooth="yes"/>
      <point x="377" y="955" type="line" smooth="yes"/>
      <point x="377" y="1212"/>
      <point x="513" y="1295"/>
      <point x="767" y="1295" type="curve"/>
    </contour>
  </outline>
</glyph>
<glyph name="florin" format="1">
  <advance width="890"/>
  <unicode hex="0192"/>
  <outline>
    <contour>
      <point x="710" y="1334" type="line"/>
      <point x="695" y="1335"/>
      <point x="681" y="1336"/>
      <point x="668" y="1336" type="curve" smooth="yes"/>
      <point x="521" y="1336"/>
      <point x="521" y="1247"/>
      <point x="521" y="1177" type="curve" smooth="yes"/>
      <point x="521" y="858" type="line"/>
      <point x="650" y="858" type="line"/>
      <point x="650" y="727" type="line"/>
      <point x="521" y="727" type="line"/>
      <point x="521" y="91" type="line" smooth="yes"/>
      <point x="521" y="-81"/>
      <point x="494" y="-191"/>
      <point x="253" y="-191" type="curve" smooth="yes"/>
      <point x="220" y="-191"/>
      <point x="190" y="-189"/>
      <point x="141" y="-183" type="curve"/>
      <point x="141" y="-59" type="line"/>
      <point x="164" y="-61"/>
      <point x="184" y="-62"/>
      <point x="201" y="-62" type="curve" smooth="yes"/>
      <point x="333" y="-62"/>
      <point x="333" y="-1"/>
      <point x="333" y="63" type="curve" smooth="yes"/>
      <point x="333" y="727" type="line"/>
      <point x="216" y="727" type="line"/>
      <point x="216" y="858" type="line"/>
      <point x="333" y="858" type="line"/>
      <point x="333" y="1155" type="line" smooth="yes"/>
      <point x="333" y="1321"/>
      <point x="353" y="1466"/>
      <point x="560" y="1466" type="curve" smooth="yes"/>
      <point x="594" y="1466"/>
      <point x="654" y="1464"/>
      <point x="710" y="1458" type="curve"/>
    </contour>
  </outline>
</glyph>
<glyph name="circumflex" format="1">
  <advance width="901"/>
  <unicode hex="02C6"/>
  <outline>
    <contour>
      <point x="381" y="1483" type="line"/>
      <point x="164" y="1217" type="line"/>
      <point x="325" y="1217" type="line"/>
      <point x="457" y="1391" type="line"/>
      <point x="581" y="1217" type="line"/>
      <point x="737" y="1217" type="line"/>
      <point x="531" y="1483" type="line"/>
    </contour>
  </outline>
</glyph>
<glyph name="caron" format="1">
  <advance width="901"/>
  <unicode hex="02C7"/>
  <outline>
    <contour>
      <point x="380.0" y="1416.0" type="line"/>
      <point x="530.0" y="1416.0" type="line"/>
      <point x="736.0" y="1150.0" type="line"/>
      <point x="580.0" y="1150.0" type="line"/>
      <point x="456.0" y="1324.0" type="line"/>
      <point x="324.0" y="1150.0" type="line"/>
      <point x="163.0" y="1150.0" type="line"/>
    </contour>
  </outline>
</glyph>
<glyph name="dotaccent" format="1">
  <advance width="575"/>
  <unicode hex="02D9"/>
  <outline>
    <contour>
      <point x="173" y="1462" type="line"/>
      <point x="427" y="1462" type="line"/>
      <point x="427" y="1221" type="line"/>
      <point x="173" y="1221" type="line"/>
    </contour>
  </outline>
</glyph>
<glyph name="ring" format="1">
  <advance width="626"/>
  <unicode hex="02DA"/>
  <outline>
    <contour>
      <point x="309" y="1275" type="curve" smooth="yes"/>
      <point x="252" y="1275"/>
      <point x="200" y="1301"/>
      <point x="200" y="1389" type="curve" smooth="yes"/>
      <point x="200" y="1476"/>
      <point x="253" y="1501"/>
      <point x="309" y="1501" type="curve" smooth="yes"/>
      <point x="367" y="1501"/>
      <point x="417" y="1474"/>
      <point x="417" y="1387" type="curve" smooth="yes"/>
      <point x="417" y="1300"/>
      <point x="366" y="1275"/>
    </contour>
    <contour>
      <point x="309" y="1210" type="curve" smooth="yes"/>
      <point x="409" y="1210"/>
      <point x="503" y="1265"/>
      <point x="503" y="1388" type="curve" smooth="yes"/>
      <point x="503" y="1511"/>
      <point x="409" y="1566"/>
      <point x="309" y="1566" type="curve" smooth="yes"/>
      <point x="209" y="1566"/>
      <point x="114" y="1511"/>
      <point x="114" y="1388" type="curve" smooth="yes"/>
      <point x="114" y="1265"/>
      <point x="209" y="1210"/>
    </contour>
  </outline>
</glyph>
<glyph name="hungarumlaut" format="1">
  <advance width="985"/>
  <unicode hex="02DD"/>
  <outline>
    <contour>
      <point x="249" y="1481" type="line"/>
      <point x="560" y="1481" type="line"/>
      <point x="301" y="1163" type="line"/>
      <point x="143" y="1163" type="line"/>
    </contour>
    <contour>
      <point x="613" y="1481" type="line"/>
      <point x="853" y="1481" type="line"/>
      <point x="683" y="1163" type="line"/>
      <point x="428" y="1163" type="line"/>
    </contour>
  </outline>
</glyph>
<glyph name="dagger" format="1">
  <advance width="658"/>
  <unicode hex="2020"/>
  <outline>
    <contour>
      <point x="225" y="1286" type="line"/>
      <point x="432" y="1286" type="line"/>
      <point x="432" y="992" type="line"/>
      <point x="599" y="992" type="line"/>
      <point x="599" y="797" type="line"/>
      <point x="432" y="797" type="line"/>
      <point x="432" y="-32" type="line"/>
      <point x="225" y="-32" type="line"/>
      <point x="225" y="797" type="line"/>
      <point x="58" y="797" type="line"/>
      <point x="58" y="992" type="line"/>
      <point x="225" y="992" type="line"/>
    </contour>
  </outline>
</glyph>
<glyph name="bullet" format="1">
  <advance width="1027"/>
  <unicode hex="2022"/>
  <outline>
    <contour>
      <point x="136" y="599" type="curve" smooth="yes"/>
      <point x="136" y="795"/>
      <point x="288" y="901"/>
      <point x="513" y="901" type="curve" smooth="yes"/>
      <point x="740" y="901"/>
      <point x="891" y="795"/>
      <point x="891" y="599" type="curve" smooth="yes"/>
      <point x="891" y="405"/>
      <point x="739" y="298"/>
      <point x="512" y="298" type="curve" smooth="yes"/>
      <point x="286" y="298"/>
      <point x="136" y="404"/>
    </contour>
  </outline>
</glyph>
<glyph name="ellipsis" format="1">
  <advance width="1427"/>
  <unicode hex="2026"/>
  <outline>
    <contour>
      <point x="112" y="255" type="line"/>
      <point x="365" y="255" type="line"/>
      <point x="365" y="0" type="line"/>
      <point x="112" y="0" type="line"/>
    </contour>
    <contour>
      <point x="944" y="255" type="line"/>
      <point x="1197" y="255" type="line"/>
      <point x="1197" y="0" type="line"/>
      <point x="944" y="0" type="line"/>
    </contour>
    <contour>
      <point x="1776" y="255" type="line"/>
      <point x="2029" y="255" type="line"/>
      <point x="2029" y="0" type="line"/>
      <point x="1776" y="0" type="line"/>
    </contour>
  </outline>
</glyph>
<glyph name="perthousand" format="1">
  <advance width="2886"/>
  <unicode hex="2030"/>
  <outline>
    <contour>
      <point x="2092" y="360" type="curve" smooth="yes"/>
      <point x="2092" y="413" type="line" smooth="yes"/>
      <point x="2092" y="646"/>
      <point x="2159" y="784"/>
      <point x="2390" y="784" type="curve" smooth="yes"/>
      <point x="2620" y="784"/>
      <point x="2690" y="647"/>
      <point x="2692" y="414" type="curve" smooth="yes"/>
      <point x="2692" y="360" type="line" smooth="yes"/>
      <point x="2692" y="131"/>
      <point x="2620" y="-19"/>
      <point x="2390" y="-19" type="curve" smooth="yes"/>
      <point x="2160" y="-19"/>
      <point x="2092" y="132"/>
    </contour>
    <contour>
      <point x="2235" y="343" type="line" smooth="yes"/>
      <point x="2235" y="202"/>
      <point x="2252" y="97"/>
      <point x="2390" y="97" type="curve" smooth="yes"/>
      <point x="2528" y="97"/>
      <point x="2547" y="202"/>
      <point x="2547" y="343" type="curve" smooth="yes"/>
      <point x="2547" y="436" type="line" smooth="yes"/>
      <point x="2547" y="574"/>
      <point x="2534" y="668"/>
      <point x="2390" y="668" type="curve" smooth="yes"/>
      <point x="2247" y="668"/>
      <point x="2235" y="574"/>
      <point x="2235" y="438" type="curve" smooth="yes"/>
    </contour>
    <component base="percent"/>
  </outline>
</glyph>
<glyph name="fraction" format="1">
  <advance width="463"/>
  <unicode hex="2044"/>
  <outline>
    <contour>
      <point x="255" y="1461" type="line"/>
      <point x="414" y="1461" type="line"/>
      <point x="135" y="-1" type="line"/>
      <point x="-22" y="-1" type="line"/>
    </contour>
  </outline>
</glyph>
<glyph name="trademark" format="1">
  <advance width="1698"/>
  <unicode hex="2122"/>
  <outline>
    <contour>
      <point x="670" y="1446" type="line"/>
      <point x="670" y="1332" type="line"/>
      <point x="458" y="1332" type="line"/>
      <point x="458" y="766" type="line"/>
      <point x="323" y="766" type="line"/>
      <point x="323" y="1332" type="line"/>
      <point x="111" y="1332" type="line"/>
      <point x="111" y="1446" type="line"/>
    </contour>
    <contour>
      <point x="1021" y="1446" type="line"/>
      <point x="1205" y="1033" type="line"/>
      <point x="1391" y="1446" type="line"/>
      <point x="1587" y="1446" type="line"/>
      <point x="1587" y="766" type="line"/>
      <point x="1460" y="766" type="line"/>
      <point x="1460" y="1329" type="line"/>
      <point x="1288" y="931" type="line"/>
      <point x="1127" y="931" type="line"/>
      <point x="948" y="1329" type="line"/>
      <point x="948" y="766" type="line"/>
      <point x="823" y="766" type="line"/>
      <point x="823" y="1446" type="line"/>
    </contour>
  </outline>
</glyph>
<glyph name="minus" format="1">
  <advance width="910"/>
  <unicode hex="2212"/>
  <outline>
    <contour>
      <point x="765" y="609" type="line"/>
      <point x="765" y="439" type="line"/>
      <point x="138" y="439" type="line"/>
      <point x="138" y="609" type="line"/>
    </contour>
  </outline>
</glyph>
<glyph name="fi" format="1">
  <advance width="1248"/>
  <unicode hex="FB01"/>
  <outline>
    <contour>
      <point x="557" y="1446" type="line" smooth="yes"/>
      <point x="339" y="1446"/>
      <point x="263" y="1347"/>
      <point x="263" y="1149" type="curve" smooth="yes"/>
      <point x="263" y="1060" type="line"/>
      <point x="101" y="1060" type="line"/>
      <point x="101" y="943" type="line"/>
      <point x="263" y="943" type="line"/>
      <point x="263" y="0" type="line"/>
      <point x="451" y="0" type="line"/>
      <point x="451" y="943" type="line"/>
      <point x="935" y="943" type="line"/>
      <point x="935" y="1060" type="line"/>
      <point x="451" y="1060" type="line"/>
      <point x="451" y="1180" type="line" smooth="yes"/>
      <point x="451" y="1256"/>
      <point x="457" y="1313"/>
      <point x="592" y="1313" type="curve" smooth="yes"/>
      <point x="663" y="1313" type="line"/>
      <point x="663" y="1446" type="line"/>
    </contour>
    <contour>
      <point x="853" y="1434" type="line"/>
      <point x="853" y="1233" type="line"/>
      <point x="1058" y="1233" type="line"/>
      <point x="1058" y="1434" type="line"/>
    </contour>
    <contour>
      <point x="864" y="1060" type="line"/>
      <point x="864" y="0" type="line"/>
      <point x="1051" y="0" type="line"/>
      <point x="1051" y="1060" type="line"/>
    </contour>
    <contour>
      <point x="853" y="1434" type="line"/>
      <point x="853" y="1233" type="line"/>
      <point x="1058" y="1233" type="line"/>
      <point x="1058" y="1434" type="line"/>
    </contour>
    <contour>
      <point x="864" y="1060" type="line"/>
      <point x="864" y="0" type="line"/>
      <point x="1051" y="0" type="line"/>
      <point x="1051" y="1060" type="line"/>
    </contour>
    <contour>
      <point x="853" y="1434" type="line"/>
      <point x="853" y="1233" type="line"/>
      <point x="1058" y="1233" type="line"/>
      <point x="1058" y="1434" type="line"/>
    </contour>
    <contour>
      <point x="864" y="1060" type="line"/>
      <point x="864" y="0" type="line"/>
      <point x="1051" y="0" type="line"/>
      <point x="1051" y="1060" type="line"/>
    </contour>
    <contour>
      <point x="853" y="1434" type="line"/>
      <point x="853" y="1233" type="line"/>
      <point x="1058" y="1233" type="line"/>
      <point x="1058" y="1434" type="line"/>
    </contour>
    <contour>
      <point x="864" y="1060" type="line"/>
      <point x="864" y="0" type="line"/>
      <point x="1051" y="0" type="line"/>
      <point x="1051" y="1060" type="line"/>
    </contour>
    <contour>
      <point x="853" y="1434" type="line"/>
      <point x="853" y="1233" type="line"/>
      <point x="1058" y="1233" type="line"/>
      <point x="1058" y="1434" type="line"/>
    </contour>
    <contour>
      <point x="864" y="1060" type="line"/>
      <point x="864" y="0" type="line"/>
      <point x="1051" y="0" type="line"/>
      <point x="1051" y="1060" type="line"/>
    </contour>
    <contour>
      <point x="853" y="1434" type="line"/>
      <point x="853" y="1233" type="line"/>
      <point x="1058" y="1233" type="line"/>
      <point x="1058" y="1434" type="line"/>
    </contour>
    <contour>
      <point x="864" y="1060" type="line"/>
      <point x="864" y="0" type="line"/>
      <point x="1051" y="0" type="line"/>
      <point x="1051" y="1060" type="line"/>
    </contour>
    <contour>
      <point x="853" y="1434" type="line"/>
      <point x="853" y="1233" type="line"/>
      <point x="1058" y="1233" type="line"/>
      <point x="1058" y="1434" type="line"/>
    </contour>
    <contour>
      <point x="864" y="1060" type="line"/>
      <point x="864" y="0" type="line"/>
      <point x="1051" y="0" type="line"/>
      <point x="1051" y="1060" type="line"/>
    </contour>
  </outline>
</glyph>
<glyph name="fl" format="1">
  <advance width="649"/>
  <unicode hex="FB02"/>
  <outline>
    <contour>
      <point x="262" y="1604" type="curve" smooth="yes"/>
      <point x="360" y="1604" type="line"/>
      <point x="360" y="1459" type="line"/>
      <point x="297" y="1459" type="line" smooth="yes"/>
      <point x="266" y="1459"/>
      <point x="262" y="1435"/>
      <point x="262" y="1396" type="curve" smooth="yes"/>
      <point x="262" y="1302" type="line"/>
      <point x="358" y="1302" type="line"/>
      <point x="358" y="1156" type="line"/>
      <point x="262" y="1156" type="line"/>
      <point x="262" y="0" type="line"/>
      <point x="70" y="0" type="line"/>
      <point x="70" y="1156" type="line"/>
      <point x="16" y="1156" type="line"/>
      <point x="16" y="1302" type="line"/>
      <point x="70" y="1302" type="line"/>
      <point x="70" y="1396" type="line" smooth="yes"/>
      <point x="70" y="1540"/>
      <point x="110" y="1604"/>
    </contour>
    <contour>
      <point x="391" y="1596" type="line"/>
      <point x="586" y="1596" type="line"/>
      <point x="586" y="0" type="line"/>
      <point x="391" y="0" type="line"/>
    </contour>
  </outline>
</glyph>
